<svg version="1.0" xmlns="http://www.w3.org/2000/svg" width="300" height="300" viewBox="0 0 976 272"><path d="M126.3 51.1c-13.9 2.7-24.3 12-29.3 26-1.1 3.2-7.2 30.2-13.5 60-10.2 47.8-11.6 55.3-11.2 61.6.8 13.4 7.3 20 22.1 22.3 13.9 2.2 30-2.4 38.5-10.9 6.3-6.3 9.9-14.6 13.7-31.5 1.8-8.3 3.4-15.4 3.4-15.9 0-.4-6.3-.7-13.9-.7h-13.9l-1.6 7.2c-.9 4-2.1 9.8-2.7 12.8-1.6 7.9-3.3 10.7-7.4 12-4.6 1.5-8.9-.4-9.3-4.2-.4-3.5 21.5-106.7 23.1-108.8 2.3-3 4.2-3.9 7.9-4 2.9 0 4.1.6 5.4 2.5 1.5 2.3 1.4 3.2-1 14.6-3.8 17.7-5 16 11.1 15.7l13.7-.3 2.8-13c3.8-17.3 4.1-27.3.9-33.9-2.8-5.7-8.8-9.9-16.2-11.5-5.7-1.3-16.5-1.3-22.6 0zM203.3 51.5c-14.2 4-22 11.2-27.4 25.6-1.1 2.7-7.1 29.4-13.5 59.2-10.6 49.6-11.5 54.9-11.2 62.5.4 7.1.8 8.8 3.4 12.4 5.6 8 18.6 11.9 33.3 9.8 17.7-2.5 29.5-12.8 34.5-30 .8-3 6.5-28.9 12.6-57.4 11.9-56 12.7-62.3 9.1-70.1-2.3-5-6.4-8.9-11.6-11.1-5.5-2.4-22.3-2.9-29.2-.9zm12.5 26.7c.7.7 1.2 2.8 1.2 4.7 0 2-4.9 26.7-11 55-8.9 42-11.3 51.8-13.1 53.7-5 5.3-12.9 3.5-12.9-2.9 0-2.5 17.5-87.4 21.5-104.5 1-4.1 5-7.2 9.3-7.2 2.1 0 4.3.5 5 1.2zM632.3 51.5c-15 4.2-24.1 13.6-28.7 29.5-4.1 14.3-23.6 109.9-23.6 115.6 0 14.8 6.9 22.3 22.7 24.5 22.3 3.2 40.8-7.5 47.9-27.5 2.6-7.1 24.5-111.8 24.7-117.6.3-11.5-4.1-19.2-13.3-23.3-6-2.7-22.2-3.3-29.7-1.2zM645.7 80c1 2.2-.4 10.1-10.1 55.8-9.5 44.5-11.7 53.7-13.6 55.7-4.9 5.3-13 3.6-13-2.6 0-3.2 20.2-99.8 22.1-105.6 1.4-4.5 4.5-6.4 9.4-6.1 3.1.2 4.2.8 5.2 2.8zM793.1 51.5c-12.1 3.4-20.5 10.4-25.7 21.2-1.4 3-3.9 11.6-5.6 19.1-5.5 25-3.4 32.8 13.6 50.1 10.9 11.1 14.6 16.9 14.6 22.3-.1 5.8-4.7 23.9-6.7 26.6-4.6 6.2-13.3 4.7-13.3-2.3 0-3 3-19.3 4.6-24.8.5-1.6-.6-1.7-13.5-1.7-12.4 0-14 .2-14.5 1.7-.3 1-1.7 7.6-3.2 14.6-3.5 17.3-3.2 26.7 1.1 32.8 5.7 8.2 18.6 12 33.4 9.9 10.2-1.4 18-5.1 24-11.4 7.8-8.3 9.8-13.2 14.7-36.6 5-23.7 2.7-31.8-13.3-47.3-15.9-15.4-17-18.3-13.4-34.2 2.7-12.2 4.5-14.5 11.3-14.5 6.4 0 7 2.8 3.8 18.3-1 5.3-2.2 10.7-2.6 12.1l-.6 2.6h28l.7-2.7c2.7-11 5.5-27.7 5.5-33.2-.1-10.6-4.6-17.9-13.5-21.7-5.6-2.4-22.3-2.9-29.4-.9zM261.5 53.1c-.2.8-8.1 37.6-17.5 81.9-9.4 44.3-17.3 81.3-17.6 82.3-.6 1.8.5 1.9 23.8 1.5 22.4-.4 24.7-.6 30.1-2.7 10.8-4.2 18.3-12 22.5-23.4 3.1-8.3 24.2-109 24.2-115.5 0-8.6-1.7-13.2-6.4-17.7-6.2-6-9.1-6.6-35.3-7.2-19.2-.5-23.4-.3-23.8.8zm34.9 27.8c.9.8 1.6 2.6 1.6 4 0 4.3-20.7 100.7-22.1 103-1.8 2.8-5.2 4.1-11.1 4.1-4.7 0-5-.1-4.5-2.3.3-1.2 5.6-25.8 11.7-54.7 6.1-28.9 11.3-53.3 11.6-54.4.5-1.6 1.4-1.8 5.9-1.4 3 .3 6.1 1 6.9 1.7zM342.6 53.7c-1 3.3-34.6 162.4-34.6 163.9 0 1.2 5 1.4 32.5 1.4 17.9 0 32.5-.2 32.5-.5s1.1-5.7 2.5-12.1c1.4-6.4 2.5-12.2 2.5-13 0-1.2-3.2-1.4-18.6-1.4-17.2 0-18.5-.1-18-1.8.7-2.1 8.6-39.4 8.6-40.5 0-.4 7.3-.7 16.3-.7h16.2l2.3-11.3c1.3-6.1 2.6-12.2 2.9-13.5l.5-2.2H356l.5-2.3c.9-3.7 8.5-39.9 8.5-40.3 0-.2 8.5-.4 18.8-.4h18.8l2.3-11.3c1.2-6.1 2.5-12.2 2.8-13.5l.5-2.2h-32.5c-30.1 0-32.6.1-33.1 1.7zM414.1 56.7c-2.2 9.6-34.1 160.4-34.1 161.4 0 .5 5.8.9 13.8.9h13.8l7.4-34.7c4-19.2 7.6-35.2 8-35.6.8-.9 1.6 8.7 3 40.8.6 12.6 1.3 24.5 1.6 26.2l.5 3.3H443c8.6 0 15-.4 15-.9s-2.2-17.5-5-37.7c-2.7-20.2-5-37-5-37.3 0-.3 2.5-1.9 5.5-3.5 6.6-3.4 11.9-9.1 15.2-16.1 1.3-3 4.2-14.3 6.5-25.2 3.7-18.2 4-20.3 3-26.1-2-11.9-8.3-17.5-22-19.3-3.7-.4-14.4-.8-23.9-.9h-17.1l-1.1 4.7zm31.7 23c4.3 1.1 4.4 4.2 1.1 20.1-4.3 20.5-5.7 22.6-14.3 22l-4.2-.3 4.4-21.3 4.5-21.2h3.1c1.7 0 4.1.3 5.4.7zM528 52.4c0 .3-7.7 36.6-17.1 80.8-9.4 44.2-17.3 81.5-17.6 83l-.5 2.8h27.9l3.2-14.8c1.7-8.1 5-23.7 7.4-34.7l4.2-20 7.8-.3c6-.2 7.7 0 7.7 1.1 0 .8-3.1 16.2-7 34.2-3.8 18-7 33.2-7 33.7 0 .4 6.3.8 14 .8s14-.4 14-.8c0-.5 7.9-37.9 17.5-83.2 9.6-45.3 17.5-82.5 17.5-82.7 0-.2-6.3-.3-13.9-.3h-14l-1.1 5.2c-.6 2.9-3.9 18.6-7.3 34.8l-6.3 29.5-8 .3-8.1.3 7.3-34.3c4.1-18.9 7.4-34.6 7.4-35.1 0-.4-6.3-.7-14-.7s-14 .2-14 .4zM689.6 53.7c-1.5 4.8-28.8 135.5-29.3 139.9-1.1 10.8 3.4 20.2 11.7 24.4 5.8 3 16 4.2 24.4 3.1 21.1-3 31.9-13.4 37-36.1C738.1 164.4 761 55.4 761 53.8c0-1.7-.9-1.8-13.7-1.6l-13.6.3-14.3 67.5c-7.9 37.1-15 68.6-15.8 70-3.2 5.5-12.8 6-14.1.7-.4-1.3 5.5-31.2 13.8-70 7.9-37.3 14.1-67.9 13.9-68.2-.3-.3-6.5-.5-13.8-.5-11.8 0-13.3.2-13.8 1.7zM851.7 52.7c-.3.5-8.2 37.2-17.7 81.8-9.4 44.5-17.3 81.8-17.6 82.8-.5 1.6 1.3 1.7 32.3 1.5l32.8-.3 2.1-9.7c1.2-5.4 2.5-11.4 2.8-13.3l.7-3.5h-18.6c-10.2 0-18.5-.2-18.5-.5 0-.5 7.4-35.6 8.5-40.3.5-2.2.8-2.2 16.5-2.2 14.2 0 15.9-.2 16.4-1.8.3-.9 1.5-6.2 2.6-11.7 1.1-5.5 2.3-10.8 2.6-11.8.5-1.6-.7-1.7-15.5-1.7-8.9 0-16.1-.3-16.1-.8 0-.4 2-9.9 4.3-21.2l4.4-20.5 18.6-.3c16.6-.2 18.6-.4 19.1-2 1.5-4.9 5.3-24.2 4.8-24.7-.8-.8-64-.6-64.5.2z"/></svg>