<svg width="300" height="300" viewBox="0 0 242 89" fill="none" xmlns="http://www.w3.org/2000/svg">
<path d="M6.83123 1.11546C4.43303 1.35278 6.21351 1.59012 11.5186 1.75626C19.0766 1.96985 23.982 2.42079 30.4135 3.46505C47.7823 6.28932 62.8619 11.8666 75.7613 20.292C83.6462 25.4184 89.4601 30.616 94.3655 36.9053C97.345 40.7501 98.4351 42.5539 101.742 49.484C103.086 52.332 104.54 59.3333 104.758 63.9376C104.794 65.1955 104.976 65.86 105.303 65.9312C105.63 66.0024 105.739 59.4283 105.739 33.6064V1.18665L74.5985 1.16292C57.4477 1.16292 35.4279 1.11546 25.6171 1.09172C15.8426 1.04425 7.37627 1.06799 6.83123 1.11546Z" fill="#1D1D1B"/>
<path d="M135.644 2.13603C123.653 4.72296 116.93 12.5075 119.91 20.292C122.235 26.2491 129.248 30.4736 138.987 31.7078C144.001 32.3486 148.325 31.9214 153.703 30.2126C156.573 29.3107 157.627 28.8123 160.062 27.1984C163.041 25.2286 164.458 23.6859 165.912 20.8854C166.856 19.0579 166.856 14.1926 165.912 12.3414C164.059 8.71016 160.062 5.3875 155.447 3.6075C151.523 2.08856 148.579 1.56643 143.529 1.49523C139.277 1.42403 138.768 1.4715 135.644 2.13603ZM146.835 8.33043C149.924 9.0187 153.23 11.4158 154.248 13.7179C155.156 15.7352 154.865 18.9155 153.63 20.6718C152.358 22.4755 150.432 23.8283 147.962 24.6115C146.217 25.1811 145.454 25.276 142.984 25.276C138.114 25.2523 134.662 23.8283 132.41 20.8854C131.102 19.224 130.738 15.7827 131.683 13.7416C132.737 11.3446 135.789 9.0899 138.987 8.35416C140.476 8.0219 145.309 7.99816 146.835 8.33043Z" fill="#1D1D1B"/>
<path d="M169.218 2.06483C169.073 2.13603 168.964 8.71017 168.964 16.6608V31.0907H174.523H180.047L179.938 25.4896C179.829 21.0515 179.865 19.8886 180.228 19.9835C180.483 20.031 181.355 20.8379 182.19 21.7635C183.026 22.6891 185.206 25.1574 187.059 27.2696L190.475 31.0907H197.161C202.43 31.0907 203.847 31.0195 203.629 30.7822C203.484 30.6398 202.357 29.5243 201.122 28.3614C195.817 23.3062 192.219 19.7224 192.219 19.4851C192.219 19.3427 192.655 19.1528 193.237 19.0816C196.107 18.6307 199.341 16.9694 200.722 15.2368C201.594 14.1451 202.139 11.5344 201.848 9.84937C201.376 6.97763 198.36 4.15337 194.654 3.08537C193.818 2.84803 192.074 2.5395 190.766 2.3971C188.041 2.1123 169.545 1.8275 169.218 2.06483ZM187.423 8.54403C189.494 9.1611 190.148 10.1816 189.966 12.3651C189.748 14.8334 188.44 15.4979 183.353 15.8064C181.1 15.9251 180.446 15.9014 180.192 15.6403C179.829 15.2606 179.756 8.47283 180.119 8.2355C180.664 7.85577 185.86 8.0931 187.423 8.54403Z" fill="#1D1D1B"/>
<path d="M203.556 5.34003L203.665 8.6627L208.68 8.7339L213.658 8.8051V19.936V31.0907H219.69H225.685L225.612 20.031C225.576 13.9552 225.649 8.92377 225.758 8.85257C225.867 8.78137 228.12 8.75763 230.7 8.75763L235.46 8.8051V5.4587C235.46 3.63123 235.351 2.13603 235.205 2.1123C235.024 2.1123 227.829 2.08857 219.181 2.06483L203.447 2.01737L203.556 5.34003Z" fill="#1D1D1B"/>
<path d="M7.15828 15.5928C7.01294 15.664 6.90393 26.8424 6.90393 40.3941V65.0293H44.6937H82.4472L82.7015 64.2224C82.9922 63.1306 82.5925 61.9914 81.8294 61.849C81.5024 61.7778 78.7772 61.493 75.7613 61.232C68.6757 60.5912 68.9664 60.6386 68.2033 59.8317C67.4403 58.9773 67.3676 56.8888 68.0943 56.509C68.385 56.3429 71.2192 55.441 74.3805 54.4917L80.1216 52.7592L80.2307 51.7624C80.3033 51.0978 80.1216 50.5282 79.7583 50.1485C79.1769 49.5789 78.9952 49.5552 76.8877 49.6976C73.8355 49.9112 69.1844 50.2672 67.2949 50.457C65.8415 50.5994 65.6598 50.552 64.497 49.7213C63.3706 48.9618 63.2252 48.7008 63.2252 47.6565C63.2252 46.897 63.4069 46.3512 63.734 46.185C64.0246 46.0426 65.5144 45.2832 67.0769 44.5C70.0201 43.0522 70.8922 42.6013 72.818 41.4858L73.9445 40.8688L73.1451 39.777C72.709 39.2074 72.055 38.6141 71.6916 38.4954C71.1829 38.3293 69.5478 38.6378 65.0421 39.777C61.7355 40.6077 58.8285 41.296 58.5742 41.296C57.1207 41.296 54.8679 39.5397 54.8679 38.4005C54.8679 38.092 56.4667 36.4544 58.6832 34.532C60.7544 32.7045 62.4622 31.0432 62.4985 30.8296C62.4985 30.3074 61.1904 29.2632 59.9913 28.8597C59.0466 28.5274 58.9012 28.5749 53.7778 31.1144C50.3258 32.7994 48.182 33.7013 47.6006 33.7013C46.2925 33.7013 44.4757 32.8944 43.7853 32.0162C43.2039 31.3042 43.2403 31.2093 44.7301 28.5274C45.5658 26.9848 46.4379 25.4184 46.6922 25.0386C46.9466 24.6352 47.3099 24.0418 47.528 23.6858C48.073 22.8314 47.855 22.4992 46.4015 22.0245C43.8216 21.1464 44.0397 21.0752 39.5703 24.7064C37.3174 26.5576 35.1009 28.1477 34.6649 28.2426C33.6111 28.5274 31.5036 28.124 30.2682 27.4357L29.2871 26.8898L29.9775 22.333C30.3772 19.6037 30.5225 17.705 30.3045 17.5864C29.8322 17.3016 27.6156 16.8506 26.6709 16.8506C25.9805 16.8506 25.6171 17.2541 24.0547 19.6274C20.9661 24.3741 20.5664 24.8725 19.6943 25.1336C18.4952 25.4896 16.8237 25.4658 15.4793 25.0386C14.0985 24.6114 13.9532 24.2554 12.7177 18.9866C12.2817 17.2304 11.773 15.7114 11.5186 15.6165C10.9736 15.4029 7.48531 15.3554 7.15828 15.5928ZM50.2532 37.5698C49.9625 40.8688 44.9481 44.1202 39.4613 44.5474L37.6808 44.6898L37.8625 43.2896C38.0442 41.5333 39.2069 39.9906 41.4234 38.5666C43.4583 37.2613 46.7649 36.2882 48.8724 36.3594L50.3258 36.4306L50.2532 37.5698ZM34.1198 38.3293C34.9556 39.3736 35.0646 39.777 35.0646 41.8893C35.0283 44.6661 34.4105 45.8528 31.9397 47.5853C30.1592 48.8432 29.8322 48.772 28.3787 46.7546C27.1433 44.9984 27.0706 41.9842 28.2697 40.2992C29.1781 38.9464 31.867 36.9765 32.6664 37.0714C32.9571 37.1189 33.6111 37.6648 34.1198 38.3293ZM25.3265 43.7168C26.1259 44.7373 26.3075 45.3781 26.4529 47.1106C26.6346 49.8162 25.7625 51.4776 23.3643 53.1152L21.7292 54.2306L20.8571 53.5186C18.7132 51.7624 18.2045 48.1074 19.767 45.8765C20.6391 44.6898 23.4006 42.4826 24.0183 42.4826C24.2 42.4826 24.7814 43.0522 25.3265 43.7168ZM47.3826 46.992C50.1442 47.9176 50.2895 48.2736 48.3274 49.4128C45.6385 50.9792 43.2766 51.5725 39.752 51.5962C37.0268 51.5962 36.518 51.525 34.2652 50.7656C32.9207 50.3146 31.7943 49.8162 31.7943 49.6264C31.7943 49.1042 34.9919 47.4904 37.2811 46.8496C40.2243 46.0426 44.7664 46.1138 47.3826 46.992ZM17.4778 50.0536C18.4952 51.8573 18.3499 54.8952 17.1144 56.5328C16.1334 57.8618 13.6625 59.6656 13.0084 59.5232C12.7541 59.452 12.1364 58.8824 11.6277 58.2416C10.8283 57.2448 10.7192 56.7938 10.7192 54.7053C10.7192 52.6168 10.8283 52.1658 11.7003 50.9317C12.2817 50.1722 13.3355 49.1992 14.0622 48.7482C15.2976 47.9888 15.443 47.965 16.0607 48.321C16.424 48.5346 17.0418 49.3178 17.4778 50.0536ZM38.1168 52.4744C39.0979 52.7354 40.188 53.1626 40.515 53.4C41.0964 53.8272 41.0601 53.8984 40.188 54.6578C39.643 55.1088 38.2258 55.8445 36.9541 56.2717C34.8466 57.0312 34.4832 57.0786 31.2493 57.0786C28.088 57.0549 27.6156 57.0074 25.5445 56.2954C24.2727 55.8682 23.2553 55.4173 23.2553 55.2986C23.2553 55.18 23.764 54.7053 24.418 54.2306C25.6535 53.305 28.2334 52.3557 30.4135 51.976C32.412 51.6437 36.0457 51.881 38.1168 52.4744ZM30.1592 58.2178C31.431 58.645 32.5574 59.096 32.6301 59.2621C32.8481 59.7368 30.5225 61.2082 28.4877 61.8253C24.6361 63.012 20.7117 63.0594 17.1871 61.944C14.4982 61.1133 14.3892 60.52 16.7511 59.2384C20.6391 57.0786 25.5081 56.7226 30.1592 58.2178Z" fill="#1D1D1B"/>
<path d="M138.732 35.2915C137.569 35.3627 137.351 35.4813 137.351 35.9323C137.351 36.4544 137.497 36.4781 139.713 36.5019C142.039 36.5256 144.364 36.9291 146.472 37.6173C149.742 38.7328 151.45 43.0048 149.669 45.7341C148.216 47.9888 145.927 48.9856 141.348 49.4128C136.37 49.8875 131.501 49.0568 129.539 47.3717C127.795 45.8765 127.577 45.0933 127.541 40.2755V35.8136L124.561 35.8848L121.545 35.956V40.8213C121.545 45.3781 121.581 45.7579 122.344 46.6597C123.689 48.3211 126.051 49.3653 130.266 50.2197C132.01 50.5757 133.645 50.6469 138.441 50.6707C144.074 50.6707 144.619 50.6232 147.308 50.0061C152.286 48.8669 155.156 47.0157 156.174 44.3339C157.554 40.7976 155.302 37.9496 149.706 36.0747C147.998 35.5051 147.126 35.4101 143.892 35.2915C141.784 35.244 139.459 35.2203 138.732 35.2915Z" fill="#1D1D1B"/>
<path d="M161.479 36.1459C161.043 36.9291 161.697 37.024 166.893 37.024C174.196 37.024 176.958 37.5462 178.92 39.2549C179.611 39.8483 179.683 40.3229 179.865 45.1645L180.047 50.4333H182.954H185.86L185.969 45.0933L186.042 39.7534L185.061 38.7328C183.063 36.7155 179.756 36.1459 168.528 35.9086C162.496 35.7899 161.697 35.8136 161.479 36.1459Z" fill="#1D1D1B"/>
<path d="M192.11 35.9797C191.965 36.0746 191.856 39.3261 191.856 43.2184V50.2672L192.692 50.4096C193.709 50.5757 196.18 50.5757 197.234 50.4096L198.033 50.2672L197.96 43.0997L197.851 35.956L195.126 35.8848C193.6 35.861 192.256 35.8848 192.11 35.9797Z" fill="#1D1D1B"/>
<path d="M229.537 35.9797C229.391 36.0747 229.282 37.0477 229.282 38.1395C229.282 39.2787 229.064 40.4653 228.774 40.8925C228.301 41.652 225.176 43.6693 224.486 43.6693C224.232 43.6693 218.491 40.3941 212.749 36.9765C211.732 36.3357 211.478 36.312 208.062 36.312C203.847 36.312 203.738 36.0747 209.079 39.16C211.005 40.2755 212.568 41.296 212.568 41.4384C212.568 41.5808 211.478 42.0792 210.169 42.5064C208.789 42.9811 207.008 43.8355 205.991 44.5475L204.21 45.7816V48.1075V50.4571L206.463 50.5045C210.024 50.5757 209.915 50.6469 210.133 47.8701C210.206 46.5411 210.497 45.0459 210.715 44.5475C211.223 43.5269 213.185 41.9605 213.839 42.0555C214.094 42.1029 216.565 43.5032 219.326 45.212C222.088 46.8971 225.213 48.7957 226.23 49.4128L228.083 50.552H231.935C234.079 50.552 235.823 50.4571 235.823 50.3384C235.823 50.2197 235.278 49.8163 234.66 49.4603C232.589 48.3448 228.846 46.1851 227.139 45.1645C225.649 44.2864 225.54 44.1677 226.194 44.0253C231.681 42.8861 234.406 41.6995 235.133 40.1331C235.351 39.6584 235.46 38.5192 235.387 37.6173L235.278 35.956L232.553 35.8848C231.027 35.8611 229.682 35.8848 229.537 35.9797Z" fill="#1D1D1B"/>
<path d="M151.232 55.5598C148.652 56.3904 147.526 57.8856 147.526 60.4488C147.526 63.5342 149.997 65.504 153.884 65.504C157.336 65.504 159.88 63.9139 160.425 61.3982L160.643 60.2827H157.918C155.411 60.2827 155.156 60.3302 155.156 60.7574C155.156 61.1608 155.411 61.232 156.973 61.232C158.645 61.232 158.79 61.2795 158.79 61.8016C158.79 62.0864 158.427 62.7035 157.954 63.1544C156.174 64.887 152.213 64.9344 150.215 63.2494C148.47 61.7542 148.616 58.6451 150.469 57.1024C152.068 55.7734 156.101 55.7971 157.7 57.1262C158.354 57.672 158.499 57.7195 158.972 57.411C159.444 57.1024 159.444 56.9838 158.935 56.5091C158.172 55.7971 155.701 55.0851 154.066 55.0614C153.376 55.0614 152.104 55.2987 151.232 55.5598Z" fill="#1D1D1B"/>
<path d="M124.307 59.9742C122.817 62.5611 121.545 64.8158 121.436 64.9582C121.363 65.1481 121.581 65.2667 122.018 65.2667C122.49 65.2667 122.89 65.0057 123.18 64.4835C124.525 62.0627 124.343 62.1814 127.177 62.1814C129.503 62.1814 129.757 62.2289 130.048 62.7035C131.211 64.6497 131.719 65.2667 132.192 65.2667C132.882 65.2667 132.7 64.8158 129.866 59.8555C128.594 57.6009 127.541 55.6547 127.541 55.5361C127.541 54.6342 126.596 55.9158 124.307 59.9742ZM128.413 59.6419L129.357 61.2321H127.177C125.978 61.2321 124.997 61.2083 124.997 61.1609C124.997 61.1371 125.397 60.3777 125.906 59.4758C126.414 58.5739 126.814 57.7907 126.814 57.7195C126.814 57.2686 127.65 58.2654 128.413 59.6419Z" fill="#1D1D1B"/>
<path d="M136.261 60.2827C136.261 65.0769 136.298 65.2667 136.988 65.2667C137.642 65.2667 137.715 65.0769 137.787 62.8222L137.896 60.4014L140.367 62.8222C142.075 64.5073 143.056 65.2667 143.565 65.2667C143.928 65.2667 144.255 65.1955 144.255 65.1006C144.255 65.0294 143.274 64.0089 142.075 62.8697C140.876 61.7305 139.895 60.7337 139.895 60.6862C139.895 60.615 140.367 60.4963 140.949 60.4014C142.439 60.1878 143.238 59.5233 143.42 58.3129C143.638 57.055 142.802 55.8446 141.494 55.5361C140.985 55.3937 139.604 55.2987 138.405 55.2987H136.261V60.2827ZM141.421 56.6515C142.221 57.1262 142.293 58.6689 141.53 59.191C140.876 59.5945 138.696 59.9267 138.115 59.6894C137.896 59.6182 137.715 58.8113 137.715 57.8857V56.2481H139.241C140.113 56.2481 141.021 56.4142 141.421 56.6515Z" fill="#1D1D1B"/>
<path d="M164.858 55.4649C164.713 55.5361 164.604 57.7907 164.604 60.4489V65.2667H168.056C171.253 65.2667 171.508 65.2193 171.508 64.7921C171.508 64.3886 171.217 64.3411 168.891 64.2699L166.239 64.1987V62.3001V60.4014L168.891 60.3302C171.181 60.259 171.508 60.2115 171.508 59.8081C171.508 59.4046 171.181 59.3571 168.891 59.2859L166.239 59.2147V57.7907V56.3667L168.891 56.2955C171.217 56.2243 171.508 56.1769 171.508 55.7734C171.508 55.3462 171.253 55.2987 168.31 55.2987C166.529 55.2987 164.967 55.3699 164.858 55.4649Z" fill="#1D1D1B"/>
<path d="M175.941 60.1878C176.05 64.6971 176.122 65.1481 176.704 65.2193C177.285 65.2905 177.321 64.9819 177.321 61.5406L177.358 57.7907L178.702 58.7638C179.429 59.3097 181.536 60.9947 183.317 62.4899C185.134 64.0089 186.696 65.243 186.878 65.2667C187.023 65.2667 187.096 63.0595 187.059 60.3539C186.95 55.9158 186.878 55.4174 186.333 55.3462C185.751 55.275 185.679 55.631 185.606 59.1198L185.497 62.9883L183.426 61.2321C178.884 57.3398 176.522 55.4174 176.195 55.3462C175.977 55.2987 175.904 57.1737 175.941 60.1878Z" fill="#1D1D1B"/>
<path d="M190.766 55.7733C190.766 56.1768 191.02 56.248 192.583 56.248H194.4V60.7811C194.4 64.9581 194.436 65.2904 195.054 65.2192C195.599 65.148 195.671 64.7208 195.78 60.6861L195.853 56.248H197.67C199.232 56.248 199.487 56.1768 199.487 55.7733C199.487 55.3224 199.232 55.2987 195.126 55.2987C191.02 55.2987 190.766 55.3224 190.766 55.7733Z" fill="#1D1D1B"/>
<path d="M203.266 55.6071C203.193 55.7733 203.157 57.9805 203.193 60.5199C203.302 64.697 203.375 65.1479 203.956 65.2191C204.537 65.2903 204.574 64.9343 204.574 60.3063C204.574 55.9631 204.501 55.2986 204.029 55.2986C203.702 55.2986 203.375 55.441 203.266 55.6071Z" fill="#1D1D1B"/>
<path d="M209.733 60.2115C209.842 64.4123 209.915 65.1481 210.387 65.1481C210.86 65.1481 210.933 64.5785 210.969 61.6355C211.005 59.7131 211.078 58.0755 211.187 58.0043C211.296 57.9569 213.403 59.547 215.838 61.5881C218.309 63.6054 220.38 65.2667 220.416 65.2667C220.489 65.2667 220.562 63.0121 220.562 60.2827C220.562 56.0107 220.489 55.2987 220.017 55.2987C219.544 55.2987 219.472 55.8683 219.472 58.9774C219.472 60.9947 219.326 62.6561 219.145 62.6561C218.999 62.6561 216.928 61.0659 214.602 59.0961C212.241 57.1499 210.169 55.4886 209.988 55.3937C209.77 55.3225 209.697 57.1262 209.733 60.2115Z" fill="#1D1D1B"/>
<path d="M228.846 56.8888C225.867 61.9202 224.159 65.1005 224.377 65.2192C224.886 65.5514 225.867 64.7682 226.521 63.5104L227.211 62.1576L229.936 62.2288L232.625 62.3L233.461 63.724C233.933 64.5784 234.515 65.1717 234.842 65.2192C235.641 65.3378 235.641 65.148 234.515 63.2256C234.006 62.3237 232.843 60.2589 231.971 58.6213C231.063 56.9837 230.227 55.5834 230.045 55.4648C229.9 55.3698 229.355 56.0106 228.846 56.8888ZM231.026 59.3096C231.462 60.2114 231.826 61.0184 231.826 61.0896C231.826 61.1608 230.917 61.232 229.827 61.232C228.737 61.232 227.829 61.1608 227.829 61.0658C227.829 60.6861 229.718 57.672 229.936 57.672C230.082 57.672 230.554 58.4077 231.026 59.3096Z" fill="#1D1D1B"/>
<path d="M28.3061 73.0275C27.6157 73.7869 26.7436 75.0211 26.3439 75.7568C25.7262 76.896 25.1811 77.3469 23.2553 78.4149C21.9472 79.1032 19.2946 80.7171 17.3325 81.9749C13.7715 84.2771 13.7352 84.2771 11.0463 84.6331C9.59285 84.8229 7.92138 84.9653 7.37633 84.9179C6.43159 84.8467 6.35891 84.7755 6.46792 83.7787C6.68594 80.9544 6.83129 80.7171 8.28474 80.4797C9.01147 80.3373 10.8283 80.1712 12.2817 80.0763C14.7163 79.9339 14.898 79.8864 14.898 79.3643C14.898 79.0795 14.7163 78.7472 14.4983 78.6523C13.5898 78.2963 10.7919 78.5573 9.19315 79.1507C8.2484 79.4829 7.449 79.7203 7.37633 79.6728C7.08564 79.4829 8.86612 75.1635 9.41117 74.7125C9.91987 74.3328 10.4649 74.2379 12.3544 74.2141C13.6625 74.2141 14.9706 74.2379 15.2613 74.3091C15.661 74.3803 15.8427 74.1667 15.9154 73.5496C16.0244 72.7664 15.9154 72.6715 15.007 72.5528C14.0622 72.4341 13.0448 72.4816 11.01 72.7664C10.0652 72.8851 7.95771 74.048 6.90396 74.9973C6.50426 75.3771 5.85021 76.6587 5.48684 77.8928C4.65111 80.5035 4.1424 85.6773 4.72378 85.6773C4.90546 85.6773 5.08714 85.8197 5.08714 86.0096C5.08714 87.3149 13.4808 85.796 14.8616 84.2296C15.1523 83.8973 15.988 83.3989 16.7148 83.1141L18.0592 82.6157L17.8775 83.66C17.7322 84.7043 17.7322 84.728 18.7133 84.728C19.4763 84.728 20.2031 84.3957 21.5838 83.4701C22.6013 82.7581 23.7277 81.9275 24.091 81.6189C24.6361 81.1443 24.7814 81.0968 25.0721 81.4053C25.2538 81.5952 25.4355 81.9275 25.4355 82.1411C25.4355 82.592 26.4166 83.2091 27.6157 83.4939C28.3061 83.6837 28.8511 83.6125 29.9049 83.2328C30.6316 82.9717 31.2493 82.6632 31.2493 82.5445C31.2493 82.4496 31.5037 82.3547 31.7943 82.3547C32.085 82.3547 32.4121 82.6869 32.5574 83.2328C33.0661 85.1315 34.5196 85.2501 36.8814 83.6125L38.4802 82.4733L39.2433 83.1379C40.188 83.8973 40.9874 83.9448 42.5862 83.304C44.2214 82.6632 44.6211 82.7107 44.7664 83.5888C44.9481 84.7043 46.7649 85.3688 48.6907 84.9891C49.4538 84.8467 50.9436 84.3008 51.9974 83.7787C53.0874 83.2565 54.0685 82.8293 54.2139 82.8293C54.3592 82.8293 54.3956 83.1379 54.2865 83.5176C53.8505 84.9179 55.9944 84.6093 58.9013 82.8293C59.7733 82.3072 60.6091 81.88 60.7544 81.88C60.9361 81.88 61.1541 82.2123 61.2995 82.6157C61.5175 83.3989 62.8256 83.8973 63.952 83.66C64.3154 83.5888 65.4418 82.9955 66.4229 82.3547C67.4403 81.6901 68.4577 81.168 68.6394 81.168C69.1844 81.168 69.1481 81.88 68.494 83.0667C67.8037 84.372 67.8037 85.2027 68.494 85.2027C68.7847 85.2027 70.1292 84.4669 71.51 83.5413C72.8907 82.6395 74.2715 81.88 74.5986 81.88C74.9256 81.88 75.616 82.3072 76.1247 82.8293C77.1058 83.8499 78.3775 84.0872 79.2133 83.3989C79.504 83.2091 79.9763 82.948 80.3034 82.8293C80.8847 82.6395 80.9211 82.7344 80.7394 83.66C80.594 84.7043 80.594 84.728 81.5751 84.728C82.5926 84.728 85.3541 83.1379 86.6622 81.8325C87.498 80.9544 87.7886 81.0019 88.2974 81.9987C89.0968 83.5888 90.9862 83.9448 93.3844 82.948L94.8379 82.3547V83.2803C94.8379 84.4669 95.5283 84.8229 97.3814 84.6568C99.2346 84.4907 101.124 83.5651 102.505 82.1648C104.249 80.3611 103.704 79.032 101.16 79.032C100.288 79.032 99.925 78.9133 99.925 78.676C99.925 77.9403 98.7986 78.3912 95.8553 80.3373C91.6403 83.0904 90.3685 83.0667 89.8598 80.2661C89.7145 79.3168 89.8598 78.8184 90.7682 77.4656C93.1664 73.9056 93.9658 71.6747 92.8394 71.6747C92.2217 71.6747 90.0778 74.1667 89.2058 75.8755C88.8061 76.7536 88.261 77.2995 87.4616 77.6555C86.8076 77.9403 85.3178 78.7947 84.1187 79.5304C78.9953 82.7107 78.4502 82.9005 77.7598 81.5477C77.5418 81.1205 77.0694 80.5747 76.6697 80.3373C75.7977 79.8152 74.9619 80.1 72.4184 81.7139C70.6016 82.8531 70.5289 82.8768 70.8196 82.236C71.0013 81.8325 71.3283 81.2155 71.5463 80.8595C71.7643 80.4797 71.946 79.8152 71.946 79.3643C71.946 78.676 71.837 78.5573 71.0739 78.5573C70.4925 78.5573 69.4751 79.1032 67.5856 80.4797C64.4607 82.7344 63.516 82.9005 63.2253 81.1917C63.1163 80.5984 62.8983 80.1 62.6802 80.0525C62.4986 80.0288 61.3721 80.5272 60.173 81.168C57.5568 82.6395 56.6847 82.9717 56.6847 82.5208C56.6847 82.3309 58.2472 81.2155 60.1367 80.0051C62.0262 78.7947 63.5886 77.7267 63.5886 77.608C63.5886 77.2757 62.0625 77.3232 61.3721 77.6792C59.3736 78.6523 57.3025 79.8152 54.9406 81.2155C50.2169 84.0635 47.7823 84.6568 47.0919 83.1379C46.6922 82.1885 46.9103 82.0224 50.2169 80.4085C52.6514 79.2219 53.4508 78.32 52.0337 78.32C51.4886 78.32 47.746 79.7915 47.2373 80.2187C47.1283 80.2899 45.9655 80.8832 44.5847 81.5003C41.7868 82.8056 41.2055 82.7344 40.8421 81.1443C40.6968 80.5984 40.4061 80.2187 40.1154 80.2187C39.861 80.2187 38.9889 80.7883 38.2259 81.4765C35.101 84.1821 34.0835 84.1821 34.8466 81.4053C35.101 80.5035 35.4643 79.6965 35.646 79.6016C36.1547 79.4117 36.0457 78.5573 35.537 78.5573C34.8103 78.5573 34.4832 78.7947 32.4121 80.5035C31.3583 81.3816 30.1592 82.1648 29.7959 82.236C28.4877 82.4971 27.652 82.1411 27.216 81.0968C26.7073 79.8152 26.9253 78.7472 28.1244 77.1333C29.2871 75.5195 30.5226 72.98 30.5226 72.2443C30.5226 71.2712 29.5415 71.6035 28.3061 73.0275ZM24.4544 80.1949C23.4733 81.2155 20.6754 83.304 20.3121 83.304C20.1304 83.304 19.985 83.1853 19.985 83.0667C19.985 82.6869 22.2379 80.456 23.655 79.388C24.7814 78.5336 24.8904 78.5099 24.9995 79.0083C25.0721 79.2931 24.8178 79.8389 24.4544 80.1949ZM87.934 79.1269C87.934 79.9813 83.5736 83.6125 82.9922 83.2565C82.8832 83.1616 83.0649 82.7581 83.3919 82.3072C84.155 81.3341 87.2799 78.5811 87.6796 78.5573C87.825 78.5573 87.934 78.8184 87.934 79.1269ZM101.306 81.1917C101.415 81.9275 101.197 82.1648 99.925 82.9005C97.8175 84.1821 96.8364 84.016 97.3088 82.4496C97.5268 81.6664 99.816 80.1712 100.652 80.2661C100.979 80.3136 101.233 80.6696 101.306 81.1917Z" fill="#1D1D1B"/>
<path d="M171.762 72.3867C170.09 73.6683 167.874 76.9672 167.22 79.1032C166.639 80.9544 166.421 81.2392 164.822 82.3547C163.877 83.0192 163.15 83.6363 163.259 83.7075C163.477 83.8261 165.694 82.9005 166.093 82.5208C166.457 82.1648 167.038 82.5208 167.329 83.2328C167.656 84.1584 168.128 84.4669 169.509 84.6331C170.854 84.7992 172.525 84.3245 174.196 83.3277L175.25 82.7107L174.996 83.3277C174.851 83.7549 174.96 84.0635 175.323 84.2533C176.086 84.6568 177.43 84.2533 179.683 82.948C180.701 82.3784 181.609 81.88 181.718 81.88C181.863 81.88 182.045 82.1885 182.154 82.5683C182.627 84.0872 184.807 84.0397 187.169 82.4496C188.549 81.5003 188.331 81.0968 186.769 81.8325C186.187 82.1173 185.461 82.3547 185.17 82.3547C184.443 82.3547 183.862 81.6189 183.862 80.7171C183.862 79.6965 183.281 79.7915 180.955 81.1917C178.448 82.6869 177.685 82.9717 177.685 82.4733C177.685 82.2835 179.247 81.1205 181.137 79.9101C183.026 78.6997 184.589 77.6317 184.589 77.5368C184.589 77.4419 184.225 77.3707 183.789 77.3707C182.772 77.3707 180.01 78.6997 175.686 81.2867C173.906 82.3547 172.053 83.3277 171.58 83.4227C170.381 83.66 169.037 82.9955 168.746 82.0224C168.564 81.3341 168.71 81.0493 169.618 80.2899C170.672 79.4355 172.234 77.4181 173.433 75.3533C175.141 72.5053 174.051 70.6067 171.762 72.3867ZM172.416 75.2821C172.053 76.3501 169.618 79.3405 169 79.4592C168.346 79.6016 168.673 78.9371 170.527 76.4688C172.016 74.4515 172.852 73.9531 172.416 75.2821Z" fill="#1D1D1B"/>
<path d="M223.36 73.2648C222.669 74.1667 221.833 75.4246 221.506 76.0654C221.107 76.8723 220.598 77.3944 219.908 77.6792C219.363 77.8928 217.945 78.676 216.746 79.4355C213.512 81.4528 210.896 82.8294 210.315 82.8294C209.661 82.8294 208.934 81.8326 208.934 80.9307C208.934 80.456 208.68 80.1475 208.135 79.9576C207.408 79.6966 207.117 79.839 204.683 81.5003C201.267 83.8499 201.049 84.4195 204.247 82.7819C204.973 82.4259 205.773 82.1174 205.991 82.1174C206.209 82.1174 206.79 82.5446 207.299 83.0667C208.752 84.5619 209.479 84.5619 212.095 83.1616L213.294 82.5208L213.076 83.6363C212.822 84.728 212.858 84.728 213.876 84.728C215.111 84.7043 215.765 84.372 218.163 82.5208L219.98 81.1206L220.707 82.1174C221.179 82.8056 221.797 83.2328 222.596 83.4464C223.687 83.755 223.941 83.7312 224.995 83.304C226.557 82.687 226.63 82.7107 226.448 83.5414C226.339 84.016 226.484 84.3008 226.848 84.3958C227.611 84.5856 229.936 83.7312 231.463 82.7107C232.153 82.2598 232.807 81.88 232.952 81.88C233.061 81.88 233.279 82.1886 233.388 82.5683C233.643 83.3752 234.805 83.8736 235.968 83.6838C236.877 83.5414 239.82 81.7614 239.82 81.3579C239.82 81.2155 239.457 81.263 239.021 81.4528C236.986 82.3072 236.622 82.4259 236.041 82.2835C235.641 82.1886 235.46 81.8326 235.46 81.1918C235.46 80.0526 234.951 79.7678 233.824 80.3611C233.352 80.6222 232.117 81.2867 231.063 81.8563C227.72 83.6363 228.556 82.4259 232.335 80.0526C234.26 78.8184 235.823 77.7267 235.823 77.5843C235.823 77.4656 235.46 77.3707 235.024 77.3707C234.188 77.3707 231.899 78.4387 227.793 80.812C224.668 82.6158 223.469 82.8056 222.705 81.619C221.942 80.3848 222.124 78.8184 223.251 77.2758C224.45 75.6144 226.085 72.1731 225.794 71.8883C225.322 71.3662 224.559 71.7934 223.36 73.2648ZM219.145 80.6459C217.836 81.9987 215.475 83.5414 215.475 83.043C215.475 82.5683 217.037 80.8595 218.636 79.5779C219.871 78.6048 220.017 78.5336 220.126 79.0083C220.198 79.2931 219.762 80.0288 219.145 80.6459Z" fill="#1D1D1B"/>
<path d="M208.28 74.9499C206.863 75.7094 206.681 76.6587 207.953 76.6587C208.389 76.6587 208.934 76.5638 209.152 76.4688C210.206 76.0179 210.824 74.2854 209.951 74.2854C209.697 74.2854 208.934 74.5939 208.28 74.9499Z" fill="#1D1D1B"/>
<path d="M116.93 76.7061C116.64 77.0147 116.131 77.6792 115.731 78.2013C115.368 78.7235 114.678 79.4829 114.205 79.8864C113.769 80.2899 113.369 80.6933 113.369 80.7883C113.369 80.9544 113.26 81.0731 111.516 82.4021C110.208 83.4464 110.862 83.66 112.388 82.7344C112.933 82.4021 113.442 82.236 113.515 82.3072C113.624 82.4021 113.442 83.2803 113.151 84.2533C112.861 85.2264 112.643 86.6979 112.643 87.5048C112.643 88.9051 112.679 89 113.478 89C114.169 89 114.423 88.8101 114.75 88.0981C116.712 83.9448 117.657 82.3547 118.166 82.3547C118.384 82.3547 119.111 82.6869 119.801 83.0667C121.254 83.9211 121.363 83.9211 122.563 83.304C123.834 82.6395 124.161 82.7107 123.98 83.5413C123.871 84.016 124.016 84.3008 124.379 84.3957C125.07 84.5619 127.468 83.7549 128.594 82.948C129.067 82.6157 129.757 82.236 130.121 82.0936C130.666 81.9037 130.811 81.9512 130.811 82.3072C130.811 82.5445 131.211 82.9955 131.683 83.2803C132.918 84.0397 133.936 83.7787 136.952 81.7851L139.459 80.1712L140.404 80.5747C141.53 81.0731 141.639 81.9987 140.767 83.6837C139.968 85.2264 140.476 85.4875 142.62 84.728C143.529 84.3957 144.8 83.8499 145.454 83.4939C146.908 82.6632 147.09 82.6632 146.872 83.5413C146.581 84.8704 148.616 84.6331 151.232 83.0429C153.267 81.8088 153.63 81.7613 153.993 82.6395C154.43 83.7787 155.81 84.0397 157.409 83.304C158.681 82.7344 160.425 81.4528 160.171 81.2867C160.098 81.2155 159.408 81.4528 158.681 81.7851C156.719 82.6395 156.101 82.4971 155.956 81.0968C155.883 80.3136 155.701 79.9813 155.302 79.9813C154.866 79.9813 153.376 80.7408 151.232 82.0699C150.941 82.2123 150.433 82.4733 150.033 82.592C148.361 83.1853 149.56 82.0699 152.758 80.0288C156.9 77.4181 156.937 77.3707 155.629 77.3707C154.502 77.3707 151.886 78.6285 146.835 81.6427C143.42 83.66 142.548 83.9448 142.984 82.9005C143.674 81.0731 143.638 80.1949 142.766 79.5779C142.293 79.2456 141.421 78.8421 140.876 78.6523C139.568 78.2013 138.042 78.6285 137.678 79.5779C137.242 80.6459 134.844 82.4021 133.936 82.3072C133.318 82.2597 133.136 82.0224 132.991 81.1917C132.882 80.5984 132.628 80.1 132.41 80.0525C132.228 80.0051 131.538 80.2661 130.92 80.6221C129.03 81.7139 128.376 82.0699 127.395 82.4733C126.596 82.8293 126.451 82.8293 126.451 82.5208C126.451 82.3309 128.013 81.2155 129.902 80.0288C131.792 78.8421 133.354 77.7504 133.354 77.608C133.354 77.4893 132.991 77.3707 132.555 77.3707C131.647 77.3707 129.139 78.5573 125.215 80.9069C123.653 81.8325 122.236 82.592 122.054 82.592C121.872 82.592 121.145 81.9987 120.419 81.2629C119.728 80.5509 118.929 79.9813 118.711 80.0288C118.021 80.1712 116.603 82.2835 115.295 85.084C114.169 87.5285 114.096 87.5997 114.278 86.3181C114.496 84.7517 115.513 82.1885 117.039 79.2693C118.093 77.2045 118.348 76.184 117.766 76.184C117.584 76.184 117.221 76.4213 116.93 76.7061Z" fill="#1D1D1B"/>
<path d="M202.611 78.3675C201.667 80.7408 199.45 83.5414 198.542 83.5414C198.178 83.5414 198.033 82.9243 197.96 81.0968C197.815 78.1776 197.379 77.9878 195.562 80.1C194.908 80.8832 193.709 81.9275 192.91 82.4496C192.147 82.948 191.493 83.4464 191.493 83.5888C191.493 83.8262 194.581 82.4971 194.945 82.1174C195.453 81.5952 195.817 81.9512 196.071 83.2328C196.18 83.9923 196.471 84.7992 196.652 85.0366C197.742 86.3894 200.577 84.1822 202.757 80.2424C203.375 79.1744 203.847 78.2488 203.847 78.2014C203.847 77.9403 202.72 78.1064 202.611 78.3675Z" fill="#1D1D1B"/>
</svg>
