<?xml version="1.0" standalone="no"?>
<!DOCTYPE svg PUBLIC "-//W3C//DTD SVG 20010904//EN"
 "http://www.w3.org/TR/2001/REC-SVG-20010904/DTD/svg10.dtd">
<svg version="1.0" xmlns="http://www.w3.org/2000/svg"
 width="421.000000pt" height="421.000000pt" viewBox="0 0 421.000000 421.000000"
 preserveAspectRatio="xMidYMid meet">

<g transform="translate(0.000000,421.000000) scale(0.100000,-0.100000)"
fill="#000000" stroke="none">
<path d="M0 2661 l0 -1550 55 -11 55 -11 -2 -59 c-4 -72 12 -92 113 -145 62
-33 69 -39 79 -78 6 -23 13 -47 15 -54 3 -9 -6 -8 -34 2 -67 23 -122 55 -167
97 -55 51 -66 43 -72 -47 -7 -103 44 -202 131 -255 l28 -17 -63 -6 c-43 -4
-73 -1 -96 9 -19 8 -36 14 -38 14 -2 0 -4 -124 -4 -275 l0 -275 908 0 907 0
34 75 c26 58 55 98 128 177 110 119 159 181 250 316 36 53 63 88 60 77 -34
-121 -34 -245 -1 -376 26 -102 29 -198 8 -253 -5 -13 -4 -17 3 -13 6 4 17 37
23 75 11 58 10 84 -9 198 -25 153 -26 195 -6 288 29 137 115 266 205 308 19 9
113 35 208 57 96 23 200 52 232 64 l58 24 -15 -41 c-8 -23 -19 -94 -24 -160
-9 -129 -28 -207 -64 -274 -31 -55 -24 -54 15 3 44 64 57 108 70 241 7 65 19
139 27 164 36 107 155 240 263 295 19 10 36 19 38 20 2 2 -18 30 -44 62 -191
234 -309 577 -321 933 -6 191 13 301 76 436 67 143 99 177 364 397 72 60 202
147 219 147 4 0 -9 -30 -28 -66 -40 -77 -45 -131 -14 -159 14 -12 20 -31 20
-57 0 -54 -43 -98 -96 -98 -63 0 -113 -21 -144 -60 -22 -28 -42 -40 -88 -53
-52 -14 -162 -85 -162 -103 0 -4 16 6 36 21 50 38 113 60 213 74 162 24 288
81 388 178 l53 51 0 -73 c0 -44 -8 -98 -19 -134 -42 -136 -113 -204 -368 -358
-236 -142 -341 -260 -351 -392 l-3 -56 28 55 c15 30 55 81 88 115 64 64 131
104 259 155 110 43 206 108 299 202 43 44 77 72 73 62 -19 -64 -28 -130 -29
-206 -1 -85 0 -89 46 -177 25 -49 51 -111 57 -136 22 -100 -40 -213 -168 -306
-122 -89 -166 -154 -203 -297 -25 -99 -25 -112 4 -112 20 0 25 8 37 52 19 76
93 216 146 276 l46 52 44 -49 c49 -55 111 -85 195 -95 65 -8 106 -31 144 -80
39 -51 43 -87 23 -201 -35 -200 -18 -392 47 -512 l25 -48 -4 70 c-2 39 -11
104 -21 145 -22 96 -12 241 16 224 5 -3 9 629 9 1530 l0 1536 -244 0 c-234 0
-247 -1 -282 -22 -20 -12 -78 -32 -128 -45 l-91 -22 75 5 c41 3 83 8 94 11 61
17 -81 -82 -164 -115 -134 -53 -351 -65 -580 -32 -124 18 -180 21 -280 16 -69
-3 -141 -10 -160 -16 l-35 -10 40 6 c139 18 222 15 370 -11 205 -36 315 -41
448 -21 59 9 112 16 118 16 15 0 -45 -83 -106 -145 -76 -78 -128 -99 -224 -92
-42 4 -92 9 -111 13 -23 4 -31 3 -25 -3 15 -14 95 -42 146 -51 l44 -8 -45 -27
c-104 -61 -237 -85 -336 -62 -78 19 -84 18 -84 -4 0 -15 10 -21 41 -26 l41 -7
-22 -23 c-12 -13 -34 -28 -49 -35 -24 -10 -29 -20 -40 -77 -18 -100 -67 -242
-103 -303 -20 -33 -53 -68 -83 -90 -27 -19 -115 -101 -195 -182 -146 -148
-201 -187 -262 -188 -40 0 -131 -108 -151 -180 -13 -44 -68 -189 -114 -300 -6
-13 -5 -13 12 0 11 8 4 -7 -16 -35 -41 -59 -112 -205 -99 -205 5 0 12 5 15 10
4 6 29 22 58 36 40 21 76 29 161 36 180 16 233 13 296 -16 64 -30 79 -31 163
-11 34 8 137 30 228 50 224 48 291 74 330 131 16 24 39 48 49 54 24 13 27 -2
4 -21 -9 -7 -34 -39 -55 -70 -72 -107 -129 -141 -379 -230 -80 -28 -167 -59
-195 -70 -90 -33 -252 -18 -383 36 -35 14 -87 30 -115 36 -28 5 -60 18 -71 28
-37 32 -52 31 -96 -6 -31 -26 -58 -69 -106 -165 -36 -72 -64 -132 -62 -133 2
-2 30 6 63 17 68 23 151 20 188 -6 12 -9 32 -23 44 -32 12 -9 62 -24 110 -35
142 -31 215 -58 253 -95 36 -34 49 -40 153 -69 52 -14 61 -21 102 -78 25 -34
64 -74 87 -89 49 -33 41 -36 -19 -7 -42 20 -84 28 -259 47 -87 10 -158 38
-230 93 -30 22 -66 36 -135 51 -52 11 -109 29 -127 40 -17 11 -52 51 -76 88
-57 88 -69 94 -128 68 -38 -16 -51 -29 -77 -78 -17 -32 -31 -59 -31 -61 0 -2
19 -3 43 -1 59 4 103 -25 116 -78 6 -22 16 -58 21 -80 9 -32 26 -53 95 -110
47 -39 89 -79 95 -90 6 -11 17 -55 24 -99 10 -54 27 -105 55 -157 22 -43 39
-79 37 -81 -1 -2 -41 24 -88 57 -89 62 -112 90 -143 173 -13 34 -34 62 -70 93
-29 24 -57 57 -63 72 -6 15 -12 74 -15 132 -4 115 -14 145 -51 154 -42 10 -74
-13 -111 -82 -20 -35 -70 -116 -111 -179 -41 -63 -72 -118 -69 -123 3 -5 0
-12 -6 -16 -8 -5 -10 -2 -5 7 4 8 -3 1 -16 -16 -83 -108 -162 -204 -188 -230
l-30 -31 45 -97 c24 -54 48 -104 53 -110 19 -24 104 -190 95 -184 -6 4 -18 21
-27 39 -18 37 -38 70 -46 78 -10 10 -52 86 -94 172 l-43 86 -69 -69 c-70 -71
-90 -81 -101 -53 -4 11 18 40 72 94 l77 78 -35 93 c-20 52 -48 146 -63 209
-14 63 -29 122 -32 130 -3 8 -4 24 -3 36 1 11 -3 32 -8 47 -10 26 -13 27 -85
27 -78 0 -176 18 -176 32 0 4 13 8 29 8 48 0 91 12 84 23 -3 6 -1 7 5 3 10 -6
118 16 128 26 2 2 -3 78 -11 169 -8 90 -14 182 -14 204 1 22 7 -21 14 -95 7
-74 15 -161 19 -193 l8 -59 21 19 c20 16 20 15 -1 -9 -13 -14 -20 -28 -15 -31
5 -3 36 -8 68 -12 53 -5 73 -2 165 30 107 37 230 55 285 41 19 -5 32 -19 47
-52 11 -25 21 -44 22 -42 20 24 116 214 116 229 0 42 -18 59 -63 59 -59 0
-105 34 -147 110 -72 129 -125 166 -281 196 -45 8 -112 27 -148 40 -75 28
-201 101 -201 117 0 20 143 -2 250 -38 58 -20 149 -42 202 -49 109 -16 164
-41 227 -106 43 -44 93 -134 112 -200 7 -25 23 -58 36 -73 13 -16 23 -34 23
-40 1 -22 100 168 100 191 0 51 -31 92 -92 123 -32 16 -62 37 -65 47 -54 160
-141 238 -378 337 -60 25 -134 60 -165 76 -55 31 -140 105 -140 122 0 16 66
-2 161 -45 55 -24 133 -49 193 -60 138 -28 216 -66 297 -147 77 -77 138 -190
158 -291 7 -36 20 -85 29 -109 l16 -45 74 155 c50 106 69 155 60 157 -16 4
-240 233 -394 401 -134 147 -161 195 -239 421 -58 170 -160 426 -214 539 -17
36 -29 66 -27 68 5 5 146 -142 169 -175 10 -15 40 -74 68 -131 27 -57 80 -147
117 -200 98 -137 130 -194 226 -399 124 -263 207 -402 285 -476 l30 -29 22 49
c11 27 31 76 44 109 l23 60 -23 17 c-13 10 -32 43 -43 75 -11 32 -32 85 -46
118 -13 33 -34 121 -46 195 -27 165 -40 200 -118 318 -74 113 -86 162 -102
417 -6 99 -13 197 -16 218 -3 25 -1 36 6 32 5 -3 10 -14 10 -23 0 -23 30 -71
95 -151 94 -117 158 -256 190 -414 27 -131 24 -128 49 -56 12 35 35 87 49 116
l27 51 -25 57 c-39 87 -68 212 -68 290 1 55 9 93 38 175 20 58 40 111 45 119
14 26 41 -81 50 -200 12 -152 24 -187 33 -93 12 124 8 165 -24 254 -38 105
-59 185 -59 228 l0 32 -905 0 -905 0 0 -1549z m3070 490 c-11 -22 -33 -76 -49
-120 -36 -99 -86 -183 -152 -255 -27 -30 -80 -94 -117 -143 -82 -107 -160
-168 -316 -245 -156 -78 -245 -107 -374 -119 -143 -14 -255 -34 -293 -53 l-31
-15 28 37 c166 223 281 310 464 348 101 21 133 36 234 108 56 40 100 62 162
81 l86 26 129 126 c71 70 155 157 185 195 31 37 58 68 60 68 3 0 -5 -18 -16
-39z m-1570 -2145 c0 -2 -8 -10 -17 -17 -16 -13 -17 -12 -4 4 13 16 21 21 21
13z m-827 -213 c-7 -2 -19 -2 -25 0 -7 3 -2 5 12 5 14 0 19 -2 13 -5z m1107
-297 c0 -2 -8 -10 -17 -17 -16 -13 -17 -12 -4 4 13 16 21 21 21 13z m-1287
-27 c48 -7 87 -16 87 -20 0 -13 -69 -22 -131 -16 -44 4 -67 12 -91 32 l-33 28
40 -6 c22 -3 79 -11 128 -18z m357 -382 c0 -2 -12 -14 -27 -28 l-28 -24 24 28
c23 25 31 32 31 24z"/>
<path d="M2388 3973 c7 -3 16 -2 19 1 4 3 -2 6 -13 5 -11 0 -14 -3 -6 -6z"/>
<path d="M2215 3681 c-22 -5 -7 -9 55 -13 59 -3 123 -17 208 -43 102 -32 125
-36 132 -25 13 21 6 26 -57 43 -137 38 -271 53 -338 38z"/>
<path d="M2093 3387 c-28 -67 -63 -169 -77 -226 -16 -61 -40 -130 -61 -167
-19 -34 -35 -75 -35 -91 0 -15 -13 -93 -30 -173 -16 -79 -28 -146 -26 -147 9
-9 104 122 131 182 50 107 127 217 186 266 127 104 305 303 349 390 11 21 20
40 20 42 0 2 -35 4 -77 4 -43 1 -124 11 -180 22 -155 32 -140 40 -200 -102z"/>
<path d="M1871 3271 c-13 -25 -26 -70 -29 -103 -5 -56 -8 -61 -58 -106 l-52
-47 14 -255 c13 -236 22 -300 45 -300 5 0 20 37 33 83 80 265 97 414 77 682
l-6 90 -24 -44z"/>
<path d="M1191 1470 c-26 -18 -57 -30 -76 -30 -18 0 -52 -7 -76 -15 -71 -26
-129 -37 -219 -44 -83 -6 -85 -6 -82 -31 11 -86 113 -462 132 -483 10 -12 72
62 64 76 -4 7 -3 9 1 4 17 -15 165 169 280 348 41 65 75 123 75 130 0 30 -23
75 -38 75 -10 0 -37 -14 -61 -30z m-401 -134 c0 -2 -8 -10 -17 -17 -16 -13
-17 -12 -4 4 13 16 21 21 21 13z"/>
<path d="M3480 1245 c-45 -65 -70 -126 -81 -198 -13 -83 -58 -174 -122 -243
-46 -51 -49 -55 -20 -41 39 21 98 88 128 147 13 25 39 93 58 150 20 58 45 131
57 164 11 32 19 60 16 63 -2 2 -18 -16 -36 -42z"/>
<path d="M3710 834 l-35 -14 34 5 c18 3 44 5 58 5 14 0 21 4 18 10 -8 13 -33
11 -75 -6z"/>
<path d="M4017 669 c-13 -50 -124 -61 -288 -28 -151 31 -245 24 -369 -26 -52
-22 -117 -45 -145 -52 l-50 -13 45 5 c24 3 85 17 134 31 168 47 259 48 396 5
75 -24 157 -27 203 -7 28 11 25 5 -32 -52 -73 -74 -97 -121 -107 -210 -6 -54
-11 -66 -40 -92 -93 -81 -260 -72 -613 35 -129 39 -312 29 -399 -21 -15 -8
-20 -13 -12 -10 113 37 127 39 230 33 109 -6 194 -28 385 -99 82 -30 100 -33
200 -33 103 0 114 2 179 33 37 17 70 32 72 32 10 0 2 -122 -11 -159 l-14 -41
214 0 215 0 0 298 0 297 -94 47 c-87 44 -94 45 -99 27z"/>
</g>
</svg>
