<?xml version="1.0" standalone="no"?>
<!DOCTYPE svg PUBLIC "-//W3C//DTD SVG 20010904//EN"
 "http://www.w3.org/TR/2001/REC-SVG-20010904/DTD/svg10.dtd">
<svg version="1.0" xmlns="http://www.w3.org/2000/svg"
 width="300" height="300" viewBox="0 0 1200.000000 300.000000"
 preserveAspectRatio="xMidYMid meet">

<g transform="translate(0.000000,300.000000) scale(0.100000,-0.100000)"
fill="#000000" stroke="none">
<path d="M7630 2338 c-72 -12 -130 -55 -163 -119 -57 -111 -43 -240 34 -324
89 -96 255 -101 341 -9 24 26 58 100 58 125 0 5 -24 9 -53 9 -51 0 -53 -1 -65
-34 -17 -47 -44 -68 -94 -73 -136 -14 -201 196 -93 304 28 28 40 33 78 33 49
0 100 -32 112 -70 5 -16 16 -20 57 -20 l51 0 -6 35 c-16 100 -133 165 -257
143z"/>
<path d="M10320 2245 c0 -47 -3 -85 -6 -85 -3 0 -17 9 -31 20 -35 27 -116 27
-161 0 -96 -59 -95 -264 1 -334 43 -31 136 -29 171 3 26 24 26 24 26 3 0 -20
5 -22 50 -22 l50 0 0 250 0 250 -50 0 -50 0 0 -85z m-35 -137 c44 -39 46 -147
4 -189 -30 -30 -92 -26 -118 7 -24 30 -29 120 -9 157 27 51 80 62 123 25z"/>
<path d="M1255 2294 c-150 -32 -295 -112 -410 -229 -331 -331 -325 -862 12
-1186 86 -83 173 -140 272 -178 110 -42 182 -55 306 -55 61 0 137 6 170 13
333 72 593 341 651 672 57 328 -81 654 -355 837 -100 67 -186 104 -294 126
-94 20 -258 19 -352 0z m361 -44 c378 -90 633 -431 611 -814 -7 -122 -26 -195
-78 -303 -90 -189 -262 -342 -457 -408 -383 -129 -797 46 -972 409 -62 129
-75 190 -74 351 0 132 2 146 32 235 18 52 50 124 72 160 79 134 223 263 366
326 146 64 344 82 500 44z"/>
<path d="M1254 2160 c-233 -61 -422 -243 -494 -475 -30 -96 -37 -255 -16 -355
9 -42 36 -116 62 -170 39 -79 62 -110 134 -181 72 -73 101 -94 180 -132 127
-60 181 -72 325 -71 100 1 133 5 197 26 120 40 204 92 294 183 66 66 90 100
128 176 61 123 79 212 73 349 -13 265 -154 483 -390 602 -136 68 -341 88 -493
48z m354 -41 c279 -73 474 -315 489 -605 11 -202 -50 -359 -196 -505 -70 -71
-102 -94 -171 -127 -201 -95 -389 -95 -590 0 -69 33 -101 56 -171 127 -145
146 -207 303 -196 505 8 174 67 305 192 431 175 175 404 237 643 174z"/>
<path d="M1085 1823 c16 -109 91 -215 192 -267 l48 -25 -122 -1 -123 0 0 -60
0 -60 123 0 122 -1 -50 -25 c-27 -14 -67 -42 -88 -62 -46 -44 -93 -139 -102
-204 l-6 -48 70 0 c70 0 71 0 71 27 0 44 40 113 83 144 64 46 67 43 67 -71 l0
-100 60 0 60 0 0 100 c0 112 4 116 59 75 48 -35 82 -86 88 -134 l6 -41 69 0
70 0 -6 48 c-9 62 -56 159 -98 199 -18 18 -58 46 -88 62 l-55 31 123 0 122 0
0 60 0 60 -127 0 -128 1 54 26 c102 49 181 156 197 266 l6 47 -71 0 c-65 0
-71 -2 -71 -20 0 -32 -28 -92 -58 -123 -24 -26 -72 -57 -87 -57 -3 0 -5 45 -5
100 l0 100 -60 0 -60 0 0 -100 c0 -55 -2 -100 -5 -100 -4 0 -18 6 -33 14 -56
29 -112 110 -112 161 0 24 -2 25 -71 25 l-70 0 6 -47z"/>
<path d="M7030 1475 l0 -835 40 0 40 0 0 835 0 835 -40 0 -40 0 0 -835z"/>
<path d="M8870 2245 c0 -54 0 -55 -30 -55 -27 0 -30 -3 -30 -30 0 -26 3 -30
29 -30 l29 0 4 -131 c3 -123 4 -132 27 -150 17 -14 39 -19 88 -19 l64 0 -3 38
c-2 22 -8 36 -15 35 -7 -2 -24 2 -38 7 -26 10 -26 10 -23 112 l3 103 38 3 c33
3 37 6 37 32 0 26 -4 29 -37 32 l-38 3 -3 53 -3 52 -50 0 -49 0 0 -55z"/>
<path d="M4327 2226 c-102 -28 -177 -110 -197 -215 -5 -29 -10 -172 -10 -317
l0 -264 69 0 70 0 3 283 c3 264 4 285 24 322 31 59 73 80 164 80 90 0 127 -18
162 -79 22 -40 23 -49 26 -323 l4 -283 70 0 70 0 -5 293 c-4 307 -8 333 -53
398 -69 100 -244 146 -397 105z"/>
<path d="M6294 2230 c-99 -21 -168 -70 -206 -148 -22 -46 -23 -57 -26 -349
l-3 -303 65 0 65 0 3 103 3 102 188 3 187 2 0 -105 0 -105 71 0 70 0 -3 298
-3 297 -29 59 c-30 62 -85 110 -154 134 -48 17 -175 24 -228 12z m202 -136
c63 -47 69 -63 72 -215 l4 -139 -189 2 -188 3 1 120 c1 154 20 205 86 236 58
27 174 23 214 -7z"/>
<path d="M2612 1922 l3 -298 30 -59 c54 -105 148 -155 295 -155 147 0 241 50
295 155 l30 59 3 298 4 298 -70 0 -70 0 -4 -282 c-3 -262 -5 -286 -24 -323
-27 -53 -88 -85 -164 -85 -77 0 -138 32 -165 85 -18 37 -20 64 -23 323 l-4
282 -70 0 -70 0 4 -298z"/>
<path d="M3380 2160 l0 -60 125 0 125 0 0 -335 0 -335 70 0 70 0 0 335 0 335
125 0 125 0 0 60 0 60 -320 0 -320 0 0 -60z"/>
<path d="M5260 1824 l0 -396 238 4 237 3 58 28 c99 49 139 147 107 262 -13 47
-68 107 -110 120 -21 7 -21 8 14 37 50 41 68 80 68 148 0 67 -19 109 -64 144
-53 39 -99 46 -330 46 l-218 0 0 -396z m431 271 c34 -18 49 -50 49 -102 0 -27
-8 -43 -34 -69 l-34 -34 -141 0 -141 0 0 110 0 110 135 0 c103 0 143 -4 166
-15z m30 -328 c72 -49 73 -155 0 -204 -32 -21 -44 -23 -182 -23 l-149 0 0 125
0 125 149 0 c137 0 150 -2 182 -23z"/>
<path d="M8053 2175 c-99 -61 -114 -227 -27 -306 80 -73 221 -60 272 23 12 20
22 38 22 42 0 16 -82 5 -102 -14 -31 -29 -98 -27 -126 3 -12 13 -22 33 -22 45
0 22 3 22 131 22 l132 0 -5 43 c-12 107 -66 160 -168 165 -55 2 -71 -1 -107
-23z m145 -62 c11 -10 23 -28 27 -40 6 -23 5 -23 -74 -23 -91 0 -101 11 -56
55 29 30 74 33 103 8z"/>
<path d="M8536 2175 c-34 -23 -36 -23 -36 -5 0 17 -7 20 -45 20 l-45 0 0 -180
0 -180 50 0 50 0 0 124 c0 136 8 159 62 172 21 4 33 0 52 -20 25 -24 26 -29
26 -151 l0 -125 50 0 50 0 0 135 c0 194 -22 235 -126 235 -38 0 -61 -6 -88
-25z"/>
<path d="M9245 2169 l-35 -31 0 26 c0 25 -3 26 -50 26 l-50 0 0 -180 0 -180
50 0 50 0 0 88 c0 147 24 192 102 192 l38 0 0 45 c0 45 0 45 -35 45 -24 0 -45
-9 -70 -31z"/>
<path d="M9490 2189 c-125 -50 -142 -267 -26 -338 71 -44 173 -37 236 15 63
53 78 182 30 258 -39 64 -161 96 -240 65z m135 -82 c45 -38 47 -145 5 -187
-30 -30 -93 -27 -119 6 -27 35 -35 82 -22 132 19 71 84 94 136 49z"/>
<path d="M10592 2183 c-74 -36 -114 -133 -92 -223 23 -96 107 -150 210 -136
52 7 85 29 118 77 l24 34 -41 3 c-30 2 -49 -3 -68 -17 -34 -28 -96 -28 -123
-1 -11 11 -20 24 -20 29 0 5 -3 16 -6 25 -5 14 10 16 130 16 79 0 136 4 136
10 0 5 -5 32 -11 60 -12 55 -46 103 -90 125 -37 20 -126 19 -167 -2z m135 -75
c13 -12 23 -30 23 -40 0 -16 -9 -18 -80 -18 -50 0 -80 4 -80 11 0 6 13 24 29
40 36 35 75 38 108 7z"/>
<path d="M8180 1450 l0 -250 180 0 180 0 0 45 0 44 -122 3 -123 3 -3 203 -2
202 -55 0 -55 0 0 -250z"/>
<path d="M10210 1660 l0 -40 50 0 50 0 0 40 0 40 -50 0 -50 0 0 -40z"/>
<path d="M4955 1555 c-31 -30 -33 -82 -4 -119 16 -20 29 -26 60 -26 52 0 73
12 89 49 25 62 -13 121 -80 121 -30 0 -47 -7 -65 -25z"/>
<path d="M7566 1569 c-85 -20 -136 -88 -136 -183 0 -68 12 -102 52 -142 63
-66 179 -70 248 -8 21 19 40 43 43 54 4 18 0 20 -35 20 -25 0 -49 -8 -65 -20
-54 -43 -143 -15 -143 45 l0 25 131 0 132 0 -7 47 c-16 119 -108 187 -220 162z
m79 -75 c14 -6 45 -53 45 -69 0 -3 -36 -5 -80 -5 -72 0 -80 2 -80 19 0 40 68
72 115 55z"/>
<path d="M8725 1565 c-115 -30 -164 -166 -104 -286 59 -117 254 -115 315 4
l15 27 -42 0 c-26 0 -50 -7 -66 -20 -16 -12 -41 -20 -64 -20 -37 0 -79 26 -79
49 0 5 -3 16 -6 25 -5 14 10 16 130 16 79 0 136 4 136 10 0 5 -5 32 -11 60
-23 109 -114 164 -224 135z m95 -75 c10 -5 23 -23 28 -40 l11 -30 -85 0 c-46
0 -84 3 -84 6 0 12 24 50 39 61 19 15 66 17 91 3z"/>
<path d="M9170 1573 c-79 -13 -123 -44 -135 -95 -7 -28 -7 -28 42 -28 43 0 51
3 61 25 23 49 114 44 120 -7 4 -34 -12 -43 -103 -57 -108 -16 -149 -60 -129
-137 13 -54 52 -79 123 -79 37 1 67 7 84 18 32 21 37 21 37 2 0 -11 12 -15 48
-15 l47 0 -3 152 c-4 170 -10 190 -64 206 -45 14 -98 20 -128 15z m90 -238 c0
-47 -29 -75 -78 -75 -43 0 -62 14 -62 46 0 28 22 46 68 55 69 13 72 12 72 -26z"/>
<path d="M9942 1569 c-18 -4 -44 -17 -58 -30 l-24 -22 0 26 c0 25 -3 27 -45
27 l-45 0 0 -185 0 -185 50 0 50 0 0 129 c0 128 0 130 26 150 33 26 55 26 85
2 23 -18 24 -27 27 -150 l4 -131 49 0 49 0 0 123 c-1 138 -10 191 -38 220 -24
23 -85 36 -130 26z"/>
<path d="M10582 1569 c-18 -4 -44 -17 -58 -30 l-24 -22 0 27 c0 26 -2 27 -47
24 l-48 -3 -3 -182 -2 -183 49 0 49 0 4 126 c4 123 5 127 32 150 33 29 56 30
87 5 23 -18 24 -27 28 -150 l3 -131 49 0 49 0 0 115 c0 131 -13 206 -40 230
-24 22 -85 33 -128 24z"/>
<path d="M10955 1570 c-80 -17 -120 -78 -120 -180 0 -73 20 -118 68 -154 41
-30 121 -29 165 2 l32 23 0 -31 c0 -37 -23 -85 -45 -94 -36 -13 -76 -6 -99 19
-19 20 -33 25 -70 25 -44 0 -47 -1 -40 -22 17 -59 75 -92 164 -92 50 0 75 5
107 24 68 38 73 58 73 284 l0 196 -45 0 c-38 0 -45 -3 -45 -20 0 -24 -8 -25
-31 -4 -23 21 -76 32 -114 24z m102 -85 c28 -19 47 -78 39 -118 -17 -84 -115
-107 -151 -36 -50 96 33 210 112 154z"/>
<path d="M9460 1385 l0 -185 50 0 50 0 0 111 c0 109 0 111 29 140 22 21 39 29
65 29 36 0 36 0 36 45 0 45 0 45 -35 45 -24 0 -45 -9 -70 -31 l-35 -31 0 31
c0 30 -1 31 -45 31 l-45 0 0 -185z"/>
<path d="M10210 1386 l0 -186 50 0 50 0 -2 183 -3 182 -47 3 -48 3 0 -185z"/>
<path d="M7870 1395 l0 -45 105 0 105 0 0 45 0 45 -105 0 -105 0 0 -45z"/>
<path d="M4740 1205 c-8 -8 -25 -23 -37 -35 -16 -14 -23 -31 -23 -58 0 -53 19
-76 65 -76 46 0 65 23 65 76 0 38 -26 78 -52 78 -8 0 -5 7 6 15 15 11 16 15 5
15 -8 0 -21 -7 -29 -15z m40 -54 c22 -43 2 -101 -35 -101 -22 0 -45 29 -45 56
0 39 18 64 45 64 14 0 29 -8 35 -19z"/>
<path d="M3187 1183 c-11 -10 -8 -143 3 -143 6 0 10 14 10 30 0 18 5 30 13 30
19 0 37 -21 37 -42 0 -10 6 -18 14 -18 15 0 11 34 -6 57 -5 7 -5 14 2 18 17
11 11 54 -9 65 -22 11 -54 13 -64 3z m58 -38 c0 -13 -8 -21 -22 -23 -19 -3
-23 1 -23 23 0 22 4 26 23 23 14 -2 22 -10 22 -23z"/>
<path d="M3312 1178 c-22 -22 -14 -57 19 -73 38 -20 36 -50 -3 -50 -37 -1 -46
-13 -15 -20 63 -16 93 51 37 83 -37 21 -35 46 3 50 15 2 25 8 22 13 -9 13 -49
11 -63 -3z"/>
<path d="M3473 1184 c-20 -9 -17 -140 3 -148 21 -8 65 3 87 22 21 19 23 94 3
111 -16 14 -75 23 -93 15z m68 -24 c28 -15 26 -74 -3 -94 -45 -32 -58 -22 -58
44 0 54 2 60 21 60 11 0 29 -5 40 -10z"/>
<path d="M3753 1184 c-9 -4 -13 -29 -13 -74 0 -78 9 -87 69 -70 57 15 79 76
44 119 -18 21 -76 36 -100 25z m72 -28 c42 -30 11 -111 -40 -104 -16 2 -21 12
-23 47 -2 24 -1 50 2 57 7 18 37 18 61 0z"/>
<path d="M4176 1169 c-20 -15 -26 -29 -26 -57 0 -20 4 -42 8 -48 13 -20 54
-36 78 -30 32 8 31 25 -1 18 -53 -10 -88 64 -47 101 10 10 31 17 46 17 16 0
25 4 21 10 -10 17 -51 11 -79 -11z"/>
<path d="M4445 1165 c-16 -15 -25 -36 -25 -55 0 -36 38 -80 70 -80 32 0 70 44
70 80 0 36 -38 80 -70 80 -11 0 -32 -11 -45 -25z m83 -27 c28 -59 -36 -117
-72 -66 -9 12 -16 29 -16 38 0 9 7 26 16 38 21 30 55 25 72 -10z"/>
<path d="M4870 1177 c-77 -39 -29 -162 55 -141 21 5 25 12 25 40 0 31 -3 34
-27 33 -17 -1 -21 -3 -10 -6 10 -3 17 -14 17 -29 0 -30 -31 -33 -60 -4 -11 11
-20 29 -20 40 0 27 36 62 63 60 35 -3 43 0 27 10 -20 13 -40 12 -70 -3z"/>
<path d="M5065 1178 c-11 -6 -23 -16 -27 -22 -11 -16 -10 -74 2 -96 12 -23 63
-35 87 -21 15 9 13 10 -14 11 -39 0 -63 23 -63 60 0 37 24 60 61 60 18 0 28 4
24 10 -8 13 -45 12 -70 -2z"/>
<path d="M5655 1178 c-11 -6 -23 -16 -27 -22 -11 -16 -10 -74 2 -96 12 -23 63
-35 87 -21 15 9 13 10 -14 11 -39 0 -63 23 -63 60 0 37 24 60 61 60 18 0 28 4
24 10 -8 13 -45 12 -70 -2z"/>
<path d="M5820 1170 c-41 -41 -15 -140 36 -140 19 0 56 19 66 34 4 6 8 28 8
49 0 44 -28 77 -65 77 -14 0 -34 -9 -45 -20z m80 -19 c22 -43 2 -101 -35 -101
-22 0 -45 29 -45 56 0 39 18 64 45 64 14 0 29 -8 35 -19z"/>
<path d="M2610 1122 c0 -44 5 -63 18 -75 46 -42 92 -3 92 78 0 30 -4 55 -10
55 -5 0 -10 -24 -10 -54 0 -60 -19 -88 -48 -69 -12 7 -18 27 -20 67 -4 74 -22
72 -22 -2z"/>
<path d="M2750 1110 c0 -40 4 -70 10 -70 6 0 10 26 10 58 l0 57 33 -54 c47
-79 57 -77 55 11 l-1 73 -6 -55 -6 -55 -34 53 c-47 73 -61 69 -61 -18z"/>
<path d="M2900 1110 c0 -40 4 -70 10 -70 6 0 10 30 10 70 0 40 -4 70 -10 70
-6 0 -10 -30 -10 -70z"/>
<path d="M2940 1172 c0 -26 44 -132 55 -132 7 0 24 32 37 70 19 52 22 70 12
70 -7 0 -21 -25 -31 -56 l-17 -56 -19 56 c-10 31 -23 56 -28 56 -5 0 -9 -4 -9
-8z"/>
<path d="M3070 1110 l0 -70 48 1 c44 2 45 2 12 8 -29 5 -35 10 -35 31 0 20 6
26 30 29 l30 4 -30 6 c-21 4 -30 12 -30 26 0 14 9 22 30 26 27 6 26 7 -12 8
l-43 1 0 -70z"/>
<path d="M3410 1110 c0 -40 4 -70 10 -70 6 0 10 30 10 70 0 40 -4 70 -10 70
-6 0 -10 -30 -10 -70z"/>
<path d="M3626 1123 c-10 -32 -21 -64 -23 -70 -3 -7 0 -13 7 -13 6 0 14 9 17
20 4 14 14 20 33 20 19 0 29 -6 33 -20 3 -11 11 -20 17 -20 7 0 10 6 7 13 -2
6 -13 38 -23 70 -12 39 -23 57 -34 57 -11 0 -22 -18 -34 -57z m47 -3 c4 -14 0
-20 -13 -20 -13 0 -16 6 -12 25 5 28 17 26 25 -5z"/>
<path d="M3940 1171 c23 -6 25 -12 28 -69 4 -82 22 -80 22 2 0 59 2 65 23 69
12 2 -5 4 -38 5 -39 0 -51 -2 -35 -7z"/>
<path d="M4050 1110 l0 -70 43 2 c36 1 38 2 10 5 -29 4 -33 8 -33 33 0 25 4
29 33 33 l32 4 -32 1 c-28 2 -33 6 -33 26 0 20 6 25 33 29 28 3 26 4 -10 5
l-43 2 0 -70z"/>
<path d="M4280 1110 c0 -40 4 -70 10 -70 6 0 10 26 10 58 l1 57 35 -57 c49
-80 64 -77 64 12 0 81 -17 95 -22 18 l-3 -52 -32 52 c-46 75 -63 70 -63 -18z"/>
<path d="M4580 1110 l0 -70 48 2 c43 1 44 2 10 5 l-38 4 0 65 c0 36 -4 64 -10
64 -6 0 -10 -30 -10 -70z"/>
<path d="M4980 1110 c0 -40 4 -70 10 -70 6 0 10 30 10 70 0 40 -4 70 -10 70
-6 0 -10 -30 -10 -70z"/>
<path d="M5195 1168 c-36 -98 -43 -128 -31 -128 8 0 16 9 19 20 3 13 14 20 30
20 17 0 28 -7 32 -20 6 -19 25 -28 25 -12 0 4 -9 36 -21 70 -20 59 -43 80 -54
50z m31 -65 c-2 -3 -11 -3 -19 -1 -11 2 -12 9 -5 28 l10 25 9 -24 c5 -13 7
-26 5 -28z"/>
<path d="M5340 1110 c0 -40 4 -70 10 -70 6 0 10 26 10 58 l1 57 35 -57 c49
-80 64 -77 64 12 0 81 -18 95 -22 18 l-3 -53 -32 53 c-47 74 -63 70 -63 -18z"/>
<path d="M5506 1123 c-10 -32 -21 -64 -23 -70 -3 -7 0 -13 7 -13 6 0 14 9 17
20 4 14 14 20 33 20 19 0 29 -6 33 -20 3 -11 11 -20 17 -20 7 0 10 6 7 13 -2
6 -13 38 -23 70 -12 39 -23 57 -34 57 -11 0 -22 -18 -34 -57z m47 -3 c4 -15 0
-20 -15 -20 -14 0 -18 5 -14 16 3 9 6 20 6 25 0 17 17 1 23 -21z"/>
<path d="M5750 1110 c0 -40 4 -70 10 -70 6 0 10 30 10 70 0 40 -4 70 -10 70
-6 0 -10 -30 -10 -70z"/>
<path d="M5960 1110 c0 -40 4 -70 10 -70 6 0 10 24 10 52 l0 53 32 -53 c45
-72 58 -68 58 18 0 40 -4 70 -10 70 -5 0 -10 -24 -10 -52 l-1 -53 -32 53 c-44
72 -57 68 -57 -18z"/>
<path d="M6135 1168 c-36 -98 -43 -128 -31 -128 8 0 16 9 19 20 3 13 14 20 30
20 17 0 28 -7 32 -20 6 -19 25 -28 25 -12 0 4 -9 36 -21 70 -20 59 -43 80 -54
50z m31 -65 c-2 -3 -11 -3 -19 -1 -11 2 -12 9 -5 28 l10 25 9 -24 c5 -13 7
-26 5 -28z"/>
<path d="M6240 1110 l0 -70 43 2 c36 1 38 2 10 5 l-33 4 0 65 c0 36 -4 64 -10
64 -6 0 -10 -30 -10 -70z"/>
<path d="M8176 934 c-9 -24 -7 -28 9 -14 17 14 20 30 6 30 -5 0 -12 -7 -15
-16z"/>
<path d="M8430 921 c0 -25 -3 -28 -25 -23 -34 6 -55 -14 -55 -53 0 -41 17 -55
63 -53 l37 1 0 79 c0 45 -4 78 -10 78 -5 0 -10 -13 -10 -29z m-5 -52 c4 -5 4
-21 1 -35 -5 -19 -12 -25 -29 -22 -37 5 -36 68 2 68 11 0 23 -5 26 -11z"/>
<path d="M8860 870 c0 -47 4 -80 10 -80 6 0 10 33 10 80 0 47 -4 80 -10 80 -6
0 -10 -33 -10 -80z"/>
<path d="M10100 930 c-6 -11 -7 -20 -2 -20 10 0 32 21 32 32 0 16 -19 8 -30
-12z"/>
<path d="M7464 926 c-10 -26 1 -51 29 -64 16 -8 27 -21 27 -33 0 -15 -7 -19
-36 -19 -21 0 -33 -4 -29 -10 7 -11 45 -13 69 -4 10 4 16 18 16 35 0 22 -7 32
-30 44 -16 9 -30 22 -30 29 0 17 25 27 45 20 8 -4 15 -1 15 5 0 17 -70 14 -76
-3z"/>
<path d="M8631 914 c-12 -15 -21 -37 -21 -49 0 -38 37 -75 75 -75 19 0 37 5
40 10 4 6 -8 10 -29 10 -42 0 -72 35 -61 70 8 26 50 54 70 47 8 -4 17 -2 20 3
4 6 -11 10 -34 10 -31 0 -44 -6 -60 -26z"/>
<path d="M9440 865 l0 -75 54 0 c44 0 58 4 70 21 l14 21 14 -21 c7 -11 19 -21
26 -21 9 0 7 8 -7 28 -18 26 -19 31 -5 50 23 33 44 17 44 -34 0 -37 3 -44 20
-44 23 0 27 15 5 24 -9 3 -15 18 -15 36 0 20 5 30 15 30 8 0 15 5 15 10 0 6
-6 10 -14 10 -8 0 -17 8 -19 18 -4 16 -5 16 -6 0 -1 -12 -9 -18 -26 -18 -13 0
-29 -8 -34 -17 -10 -17 -12 -17 -25 0 -22 28 -39 21 -20 -8 15 -22 15 -29 4
-51 -8 -14 -20 -22 -28 -19 -7 3 -25 5 -38 5 -19 0 -24 5 -24 25 0 21 5 25 30
25 17 0 30 5 30 10 0 6 -13 10 -30 10 -23 0 -30 4 -30 20 0 16 7 20 30 20 17
0 30 5 30 10 0 6 -18 10 -40 10 l-40 0 0 -75z"/>
<path d="M10010 930 c0 -5 5 -10 10 -10 6 0 10 5 10 10 0 6 -4 10 -10 10 -5 0
-10 -4 -10 -10z"/>
<path d="M10330 893 c0 -64 18 -97 53 -101 45 -5 57 13 57 84 0 82 -18 84 -22
2 -3 -53 -6 -63 -22 -66 -28 -6 -46 25 -46 80 0 26 -4 48 -10 48 -5 0 -10 -21
-10 -47z"/>
<path d="M10590 930 c0 -5 5 -10 10 -10 6 0 10 5 10 10 0 6 -4 10 -10 10 -5 0
-10 -4 -10 -10z"/>
<path d="M10990 930 c0 -5 5 -10 10 -10 6 0 10 5 10 10 0 6 -4 10 -10 10 -5 0
-10 -4 -10 -10z"/>
<path d="M11270 930 c0 -5 5 -10 10 -10 6 0 10 5 10 10 0 6 -4 10 -10 10 -5 0
-10 -4 -10 -10z"/>
<path d="M7941 918 c0 -9 -7 -19 -13 -22 -10 -5 -10 -7 0 -12 7 -3 12 -24 12
-50 0 -37 3 -44 20 -44 23 0 27 15 5 24 -9 3 -15 18 -15 36 0 20 5 30 15 30 8
0 15 5 15 10 0 6 -6 10 -14 10 -8 0 -17 8 -19 18 -4 15 -5 15 -6 0z"/>
<path d="M8910 916 c0 -8 -6 -17 -12 -19 -10 -4 -10 -8 -1 -14 6 -4 13 -26 15
-48 2 -33 7 -41 26 -43 12 -2 22 1 22 7 0 6 -7 11 -15 11 -10 0 -15 11 -15 35
0 24 5 35 15 35 8 0 15 5 15 10 0 6 -7 10 -15 10 -8 0 -15 7 -15 15 0 8 -4 15
-10 15 -5 0 -10 -6 -10 -14z"/>
<path d="M11040 916 c0 -8 -6 -17 -12 -19 -10 -4 -10 -8 -1 -14 6 -4 13 -26
15 -48 2 -33 7 -41 26 -43 12 -2 22 1 22 7 0 6 -7 11 -15 11 -10 0 -15 11 -15
35 0 24 5 35 15 35 8 0 15 5 15 10 0 6 -7 10 -15 10 -8 0 -15 7 -15 15 0 8 -4
15 -10 15 -5 0 -10 -6 -10 -14z"/>
<path d="M2770 845 c0 -43 4 -75 10 -75 6 0 10 15 10 34 0 30 4 35 28 39 l27
4 -27 2 c-23 1 -28 6 -28 26 0 21 5 25 30 25 17 0 30 5 30 10 0 6 -18 10 -40
10 l-40 0 0 -75z"/>
<path d="M2877 845 c-20 -58 -22 -75 -12 -75 7 0 15 10 17 23 2 16 11 23 30
25 22 3 29 -2 34 -22 3 -14 12 -26 19 -26 10 0 7 19 -12 75 -14 43 -30 75 -38
75 -8 0 -24 -32 -38 -75z m52 -2 c1 -7 -6 -13 -14 -13 -16 0 -19 17 -8 46 6
16 7 16 14 -2 4 -10 8 -25 8 -31z"/>
<path d="M3010 900 c-12 -12 -20 -33 -20 -55 0 -22 8 -43 20 -55 21 -21 90
-29 90 -10 0 6 -16 10 -35 10 -28 0 -38 5 -46 24 -23 50 20 107 66 90 8 -4 15
-1 15 5 0 19 -68 13 -90 -9z"/>
<path d="M3130 857 c0 -36 5 -68 12 -75 20 -20 65 -14 82 10 18 25 22 128 6
128 -5 0 -10 -22 -10 -48 0 -55 -18 -86 -46 -80 -16 3 -19 13 -22 66 -4 81
-22 81 -22 -1z"/>
<path d="M3270 845 l0 -75 40 0 c22 0 40 5 40 10 0 6 -13 10 -30 10 l-30 0 0
65 c0 37 -4 65 -10 65 -6 0 -10 -32 -10 -75z"/>
<path d="M3340 910 c0 -5 9 -10 20 -10 18 0 20 -7 20 -65 0 -37 4 -65 10 -65
6 0 10 28 10 65 0 63 1 65 25 65 14 0 25 5 25 10 0 6 -25 10 -55 10 -30 0 -55
-4 -55 -10z"/>
<path d="M3462 852 c-25 -78 -26 -82 -12 -82 5 0 12 11 16 25 4 18 13 25 30
25 17 0 27 -8 34 -25 9 -23 30 -35 30 -17 -1 25 -50 137 -62 140 -9 2 -21 -20
-36 -66z m51 7 c3 -12 0 -22 -9 -26 -20 -7 -24 -1 -17 25 7 28 19 28 26 1z"/>
<path d="M3580 845 l0 -75 39 0 c53 0 85 27 85 73 0 52 -27 77 -81 77 l-43 0
0 -75z m89 40 c17 -16 18 -60 1 -80 -7 -8 -25 -15 -41 -15 -28 0 -29 1 -29 53
0 30 3 57 7 60 9 9 44 -1 62 -18z"/>
<path d="M3780 846 c0 -44 4 -76 10 -76 6 0 10 16 10 35 0 19 3 35 8 35 16 0
31 -17 37 -43 8 -29 25 -37 25 -11 0 8 -5 24 -10 34 -8 14 -7 25 2 40 19 29
-1 54 -46 58 l-36 3 0 -75z m55 50 c16 -12 17 -16 6 -30 -22 -26 -41 -19 -41
14 0 33 7 37 35 16z"/>
<path d="M3900 845 l0 -75 40 0 c22 0 40 5 40 10 0 6 -13 10 -30 10 -25 0 -30
4 -30 25 0 20 5 25 25 25 14 0 25 5 25 10 0 6 -11 10 -25 10 -18 0 -25 5 -25
20 0 16 7 20 30 20 17 0 30 5 30 10 0 6 -18 10 -40 10 l-40 0 0 -75z"/>
<path d="M4022 904 c-33 -23 -32 -97 2 -119 14 -9 39 -15 58 -13 30 3 33 6 36
41 3 34 1 37 -22 37 -14 0 -26 -4 -26 -10 0 -5 7 -10 15 -10 8 0 15 -9 15 -20
0 -15 -7 -20 -28 -20 -37 0 -52 17 -52 56 0 38 20 57 60 56 17 0 30 4 30 9 0
15 -64 10 -88 -7z"/>
<path d="M4150 845 c0 -43 4 -75 10 -75 6 0 10 32 10 75 0 43 -4 75 -10 75 -6
0 -10 -32 -10 -75z"/>
<path d="M4210 900 c-44 -44 -13 -130 48 -130 33 0 45 8 61 39 17 30 6 88 -19
101 -30 16 -68 12 -90 -10z m70 0 c24 -13 33 -53 18 -84 -16 -37 -65 -36 -78
0 -12 31 -3 71 19 84 20 12 19 12 41 0z"/>
<path d="M4350 845 c0 -43 4 -75 10 -75 6 0 10 26 10 58 l1 57 35 -55 c19 -30
39 -56 44 -58 6 -2 9 27 8 75 -1 62 -2 67 -5 26 -2 -29 -7 -53 -11 -53 -4 0
-20 23 -37 50 -42 72 -55 66 -55 -25z"/>
<path d="M4512 852 c-25 -78 -26 -82 -12 -82 5 0 12 11 16 25 4 18 13 25 30
25 17 0 27 -8 34 -25 12 -32 34 -34 24 -2 -47 150 -60 158 -92 59z m48 -4 c0
-10 -7 -18 -15 -18 -17 0 -18 4 -8 38 4 18 8 20 14 10 5 -7 9 -21 9 -30z"/>
<path d="M4630 845 l0 -75 45 0 c25 0 45 5 45 10 0 6 -16 10 -35 10 l-35 0 0
65 c0 37 -4 65 -10 65 -6 0 -10 -32 -10 -75z"/>
<path d="M4780 845 l0 -75 34 0 c48 0 88 45 56 65 -5 3 -7 20 -3 36 7 36 -7
49 -54 49 l-33 0 0 -75z m59 56 c19 -12 6 -41 -19 -41 -13 0 -20 7 -20 18 0
31 14 39 39 23z m9 -74 c14 -16 3 -34 -23 -39 -15 -2 -21 3 -23 25 -3 21 1 27
16 27 11 0 24 -6 30 -13z"/>
<path d="M4902 854 c4 -70 14 -84 59 -84 39 0 49 18 49 87 0 82 -18 82 -22 1
-3 -53 -6 -63 -22 -66 -28 -6 -46 25 -46 80 0 29 -4 48 -11 48 -8 0 -10 -21
-7 -66z"/>
<path d="M5050 845 l0 -75 40 0 c22 0 40 5 40 10 0 6 -13 10 -30 10 -25 0 -30
4 -30 25 0 20 5 25 25 25 14 0 25 5 25 10 0 6 -11 10 -25 10 -18 0 -25 5 -25
20 0 16 7 20 30 20 17 0 30 5 30 10 0 6 -18 10 -40 10 l-40 0 0 -75z"/>
<path d="M5150 845 c0 -88 18 -102 22 -17 l3 57 35 -57 c48 -80 60 -76 60 17
0 43 -4 75 -10 75 -5 0 -10 -26 -10 -57 l-1 -58 -35 58 c-50 80 -64 76 -64
-18z"/>
<path d="M5310 900 c-44 -44 -13 -130 48 -130 33 0 45 8 61 39 17 30 6 88 -19
101 -30 16 -68 12 -90 -10z m70 0 c24 -13 33 -53 18 -84 -16 -37 -65 -36 -78
0 -12 31 -3 71 19 84 20 12 19 12 41 0z"/>
<path d="M5454 906 c-10 -26 1 -51 29 -64 38 -19 37 -52 -3 -52 -16 0 -30 -4
-30 -10 0 -11 39 -13 64 -4 10 4 16 18 16 35 0 22 -7 32 -30 44 -47 24 -39 51
13 46 9 -1 17 3 17 8 0 17 -70 13 -76 -3z"/>
<path d="M5622 852 c-25 -78 -26 -82 -12 -82 5 0 12 11 16 25 4 18 13 25 30
25 17 0 27 -8 34 -25 12 -32 34 -34 24 -2 -47 150 -60 158 -92 59z m48 -4 c0
-10 -7 -18 -15 -18 -17 0 -18 4 -8 38 4 18 8 20 14 10 5 -7 9 -21 9 -30z"/>
<path d="M5740 845 c0 -43 4 -75 10 -75 6 0 10 32 10 75 0 43 -4 75 -10 75 -6
0 -10 -32 -10 -75z"/>
<path d="M5801 843 c1 -43 4 -67 6 -53 8 47 11 52 32 41 10 -6 22 -22 25 -36
4 -14 11 -25 16 -25 13 0 13 12 0 45 -7 18 -6 31 3 45 18 29 -2 54 -47 58
l-36 3 1 -78z m54 53 c16 -12 17 -16 6 -30 -26 -31 -62 -9 -47 29 7 19 17 19
41 1z"/>
<path d="M5910 845 l0 -75 45 0 c25 0 45 5 45 10 0 6 -16 10 -35 10 -31 0 -35
3 -35 25 0 21 5 25 30 25 17 0 30 5 30 10 0 6 -13 10 -30 10 -23 0 -30 4 -30
20 0 16 7 20 30 20 17 0 30 5 30 10 0 6 -18 10 -40 10 l-40 0 0 -75z"/>
<path d="M6032 911 c-22 -14 -10 -54 21 -69 38 -19 37 -52 -3 -52 -16 0 -30
-4 -30 -10 0 -5 16 -10 35 -10 61 0 70 56 14 86 -46 23 -38 50 14 45 9 -1 17
3 17 8 0 13 -49 14 -68 2z"/>
<path d="M7572 888 c-7 -7 -12 -26 -12 -43 0 -38 16 -55 52 -55 36 0 37 18 1
22 -42 5 -41 28 1 28 28 0 36 4 36 18 0 24 -19 42 -45 42 -12 0 -26 -5 -33
-12z m58 -19 c0 -5 -11 -9 -25 -9 -26 0 -34 15 -12 23 16 5 37 -3 37 -14z"/>
<path d="M7676 884 c-35 -34 -9 -94 40 -94 13 0 24 5 24 10 0 6 -8 10 -19 10
-26 0 -44 25 -36 50 4 13 15 20 30 20 13 0 27 5 30 10 10 17 -52 11 -69 -6z"/>
<path d="M7760 843 c0 -29 5 -53 10 -53 6 0 10 13 10 29 0 39 9 61 26 61 8 0
14 4 14 9 0 5 -13 9 -30 9 -29 -1 -30 -2 -30 -55z"/>
<path d="M7832 888 c-7 -7 -12 -26 -12 -43 0 -38 16 -55 51 -55 40 0 46 18 7
22 -46 4 -49 28 -4 28 28 0 36 4 36 18 0 24 -19 42 -45 42 -12 0 -26 -5 -33
-12z m58 -19 c0 -5 -12 -9 -26 -9 -22 0 -24 2 -14 14 12 15 40 11 40 -5z"/>
<path d="M8000 891 c0 -6 10 -10 21 -8 12 1 24 -4 26 -10 3 -8 -4 -13 -15 -13
-25 0 -45 -23 -40 -47 2 -13 13 -18 43 -19 l40 -2 -5 52 c-5 49 -6 51 -37 54
-19 2 -33 -1 -33 -7z m53 -66 c-6 -16 -43 -21 -43 -5 0 11 32 30 42 24 4 -3 5
-11 1 -19z"/>
<path d="M8100 844 c0 -30 5 -54 10 -54 6 0 10 18 10 40 0 27 5 43 15 46 23 9
18 22 -10 22 -24 0 -25 -4 -25 -54z"/>
<path d="M8170 845 c0 -30 5 -55 10 -55 6 0 10 25 10 55 0 30 -4 55 -10 55 -5
0 -10 -25 -10 -55z"/>
<path d="M8214 889 c-3 -6 1 -10 12 -9 50 6 63 -14 15 -23 -58 -12 -46 -67 15
-65 33 1 34 2 34 43 0 22 -5 46 -12 53 -15 15 -55 16 -64 1z m43 -76 c-15 -15
-17 -15 -23 1 -8 21 16 40 30 26 7 -7 4 -16 -7 -27z"/>
<path d="M8482 888 c-7 -7 -12 -26 -12 -43 0 -38 16 -55 52 -55 36 0 37 18 1
22 -42 5 -41 28 1 28 28 0 36 4 36 18 0 24 -19 42 -45 42 -12 0 -26 -5 -33
-12z m58 -19 c0 -5 -11 -9 -25 -9 -26 0 -34 15 -12 23 16 5 37 -3 37 -14z"/>
<path d="M8740 856 c0 -51 14 -66 58 -63 32 2 32 3 32 55 0 28 -4 52 -10 52
-5 0 -10 -18 -10 -40 0 -28 -5 -43 -16 -47 -21 -8 -34 13 -34 55 0 17 -4 32
-10 32 -5 0 -10 -20 -10 -44z"/>
<path d="M8970 864 c0 -55 15 -74 55 -71 l35 2 0 53 c0 28 -4 52 -10 52 -5 0
-10 -20 -10 -45 0 -37 -3 -45 -19 -45 -21 0 -31 19 -31 61 0 16 -4 29 -10 29
-5 0 -10 -16 -10 -36z"/>
<path d="M9090 844 c0 -30 5 -54 10 -54 6 0 10 18 10 40 0 27 5 43 15 46 23 9
18 22 -10 22 -24 0 -25 -4 -25 -54z"/>
<path d="M9160 891 c0 -6 10 -10 21 -8 12 1 24 -4 26 -10 3 -8 -4 -13 -15 -13
-25 0 -45 -23 -40 -47 2 -13 13 -18 41 -19 l38 -1 -3 51 c-3 50 -4 51 -35 54
-19 2 -33 -1 -33 -7z m50 -61 c0 -13 -7 -20 -20 -20 -25 0 -26 16 -2 29 23 14
22 14 22 -9z"/>
<path d="M9290 891 c0 -5 9 -30 19 -54 19 -44 19 -46 1 -62 -22 -20 -16 -42 6
-24 18 15 27 32 53 98 17 43 18 51 6 51 -8 0 -15 -4 -15 -9 0 -5 -5 -22 -11
-38 l-11 -28 -15 38 c-14 34 -33 50 -33 28z"/>
<path d="M9710 881 c-25 -47 0 -91 51 -91 39 0 37 18 -3 22 -49 5 -48 28 1 28
46 0 45 -1 31 34 -12 33 -64 37 -80 7z m58 -9 c2 -7 -7 -12 -23 -12 -24 0 -26
2 -15 15 14 17 31 16 38 -3z"/>
<path d="M9810 844 c0 -30 5 -54 10 -54 6 0 10 13 10 29 0 42 10 61 31 61 18
0 22 -9 33 -70 2 -14 3 0 2 30 l-1 55 -42 1 -43 2 0 -54z"/>
<path d="M9937 893 c-14 -13 -6 -43 14 -53 27 -15 19 -36 -12 -32 -18 3 -21 1
-13 -8 7 -6 22 -10 35 -8 33 4 40 53 9 63 -24 8 -21 31 4 27 9 -2 16 2 16 8 0
11 -43 14 -53 3z"/>
<path d="M10010 845 c0 -30 5 -55 10 -55 6 0 10 25 10 55 0 30 -4 55 -10 55
-5 0 -10 -25 -10 -55z"/>
<path d="M10066 884 c-9 -8 -16 -26 -16 -39 0 -56 71 -73 99 -24 13 24 13 29
-2 53 -20 30 -57 35 -81 10z m67 -25 c3 -10 -3 -29 -12 -40 -16 -20 -18 -20
-34 -4 -21 20 -22 39 -2 59 19 18 41 12 48 -15z"/>
<path d="M10175 883 c3 -8 5 -33 6 -56 1 -46 4 -42 14 16 4 27 11 37 24 37 22
0 31 -19 31 -61 0 -16 5 -29 10 -29 13 0 13 66 0 91 -13 24 -95 26 -85 2z"/>
<path d="M10470 844 c0 -64 17 -73 22 -11 2 35 7 43 26 45 20 3 22 -1 22 -42
0 -26 5 -46 11 -46 6 0 9 21 7 53 l-3 52 -42 1 -43 2 0 -54z"/>
<path d="M10590 845 c0 -30 5 -55 10 -55 6 0 10 25 10 55 0 30 -4 55 -10 55
-5 0 -10 -25 -10 -55z"/>
<path d="M10640 848 c11 -29 20 -54 20 -55 0 -2 5 -3 11 -3 9 0 28 37 43 88
12 37 -11 25 -24 -13 -13 -40 -25 -38 -35 5 -4 17 -13 30 -21 30 -11 0 -10
-10 6 -52z"/>
<path d="M10742 888 c-7 -7 -12 -26 -12 -43 0 -38 16 -55 52 -55 36 0 37 18 1
22 -42 5 -41 28 1 28 28 0 36 4 36 18 0 24 -19 42 -45 42 -12 0 -26 -5 -33
-12z m58 -19 c0 -5 -12 -9 -26 -9 -22 0 -24 2 -14 14 12 15 40 11 40 -5z"/>
<path d="M10840 844 c0 -30 5 -54 10 -54 6 0 10 18 10 40 0 27 5 43 15 46 23
9 18 22 -10 22 -24 0 -25 -4 -25 -54z"/>
<path d="M10905 883 c-4 -12 2 -24 19 -38 33 -26 33 -35 1 -35 -14 0 -25 -5
-25 -11 0 -6 14 -9 32 -7 44 4 49 33 11 64 -15 13 -22 24 -15 25 6 1 16 2 21
3 25 3 20 16 -6 16 -20 0 -33 -6 -38 -17z"/>
<path d="M10990 845 c0 -30 5 -55 10 -55 6 0 10 25 10 55 0 30 -4 55 -10 55
-5 0 -10 -25 -10 -55z"/>
<path d="M11104 889 c-3 -6 1 -10 12 -9 52 6 62 -14 13 -24 -26 -5 -30 -10
-27 -33 3 -25 7 -28 41 -30 37 -1 37 -1 37 37 0 21 -3 45 -6 54 -7 18 -59 22
-70 5z m56 -53 c0 -7 -7 -19 -15 -26 -12 -10 -16 -9 -21 5 -4 10 -1 21 7 26
20 12 29 11 29 -5z"/>
<path d="M11200 843 c0 -29 5 -53 10 -53 6 0 10 14 10 30 0 17 9 39 20 50 26
26 25 29 -10 28 -29 -1 -30 -2 -30 -55z"/>
<path d="M11270 845 c0 -30 5 -55 10 -55 6 0 10 25 10 55 0 30 -4 55 -10 55
-5 0 -10 -25 -10 -55z"/>
<path d="M11320 891 c0 -6 10 -10 21 -8 29 3 36 -21 8 -25 -27 -4 -44 -29 -36
-52 4 -11 18 -16 44 -16 l39 0 -6 53 c-5 50 -6 52 -37 55 -19 2 -33 -1 -33 -7z
m50 -61 c0 -13 -7 -20 -20 -20 -25 0 -26 16 -2 29 23 14 22 14 22 -9z"/>
</g>
</svg>
