<svg version="1.0" xmlns="http://www.w3.org/2000/svg" width="206.667" height="206.667" viewBox="0 0 155 155"><path d="M49 59.2c-5.2 2.7-7.6 5.8-10 12.9-2 5.9-1 5.4-14.7 7.5-3 .4-4.9 2.7-3.7 4.5.3.5 3.9.9 7.9.9h7.4l-.2 8.2c-.2 7.7-.1 8.3 1.8 8.3 1.8 0 2.1-1 2.9-8.2 1.1-9.7-.7-8.8 19.6-10.1 14.7-1 14.3-1.2 16 8.8 1.3 7.7 3.2 10.3 5.6 7.9 1.3-1.3 1.3-2.4-.1-8.8C79.3 80.6 79.1 81 85.8 81c6.5 0 13.2-1.6 13.2-3.1 0-.6-.5-1.9-1.1-3-1-1.9-1.7-2-10.8-1.4l-9.8.7-1.2-3.2c-1.5-4.5-5.7-9.8-9.5-12.1-4.3-2.7-12-2.5-17.6.3zm12.9 7.9c3.2 2 7 5.7 7.1 7 0 .3-3.5.9-7.7 1.3-4.3.4-10.2 1-13 1.3l-5.3.6 1.1-3.2c.6-1.7 2.5-4.5 4.1-6.1 3.6-3.7 8.7-4 13.7-.9z"/></svg>