<svg xmlns="http://www.w3.org/2000/svg" width="588" height="498.7" version="1.0" viewBox="0 0 441 374"><path fill="var(--background)" d="m223 31-20 7c-5 0-12 3-14 6-7 7-12 27-12 45 0 8-1 13-2 13-1 2-3 11-3 17 0 3 4 12 5 13l4 1c2 0 3 1 4 7l1 27v10l-4 2h-5l-21-2a777 777 0 0 1-34-1l-22 1-27 1-23 3c-11 0-18 1-28 3l-15 3H4l3 3 3 4-6 2c-4-1-4 0-4 7s0 7 2 6c1-2 2-2 3-1 2 1 4 2 6 1l5 1c3 4-3 6-12 6H0v84h4l16 5-13-1H3c-3 1-3 2-3 4 0 3 0 3 3 3l10 2h12c3-1 5-1 10 1l8 3 7 1c3 1 4 2 4 4-1 3-3 3-10 0-4-2-6-3-8-2H22l-14 1H6l-4-1-2-1v53h26c19 0 25 0 24-1-2-1-2-4 0-19a508 508 0 0 0 2-15l1 6c2 3 2 4 0 14-2 8-2 11-1 13l1 2h388V182h-4c-6-1-23 0-22 1 0 1-1 2-3 2l-2-1-9-1-17-2c-6 0-9 0-15 2l-14 3-23 1-18 2c-2 1-7 0-20-1l-21-1h-6c-2-2-11-1-12 1v6c1 9-3 14-15 16h-8c-3-3-5-15-3-17v-1l-1-4c0-8 6-17 14-19 6-2 17-9 17-11h-2l-2 2h-1c0 1-11 4-13 3-2 0-3-1-3-2l-3-5-2-3-1-1-1-1h1l1-1c-1-2 1-3 5-3 4 1 5 2 5 4h1c2-1 2-10 1-11l-1-1c0-1 3 0 5 2 2 1 2 1 2-1s-2-4-5-5l-5-4c-5-5-4-6 2-8 3-1 4 0 7 1 3 3 4 2 3 0 0-3-5-8-6-8l-1 2-1 2h-1c0-3-4-5-5-3s-2-7-2-17l-1-9 3 1c4 0 4 0 3 4v4l12 13c2 1 2 1 2-2 0-2 0-3 2-3l2-2c0-1 0-2 3-2l3-1-5-4-3-3c2 0 4 1 5 3 2 2 3 2 3 0v-2l-1-2v-1l-2-2v-3l6 3 1 1c1-1-4-8-6-9h-6l-5-1 9-1h10l2 6c2 5 2 6 1 12l-1 7 3-6c3-6 5-19 4-22h-1c0 2-1 1-3-3l-13-18-5-5 5 5c3 2 7 8 10 12 5 7 5 7 6 4l-2-9-3-7c0-3-8-11-13-14a928 928 0 0 0-32-14l-7 1zm-34 59-2 10v4l-1 2v3l-1 3v2l-1 2-1 4-1 3v-3l1-11 3-16c0-9 1-11 2-11l1 8zm3-3c-1 1-1 0-1-1s0-2 1-1v2zm81 106 10 3c4 0 8 4 7 5-1 2-7 0-19-5-13-7-18-10-9-7l11 4zm-137 4a220 220 0 0 1-13 5l8-4 8-3 2-1-5 3zm-70 0c5 0 6 3 3 6s-12 5-16 5c-3-1-5-4-3-5 2-2 2-2 0-2-5-2-7-1-7 2 0 4-2 4-5 1-2-2-2-2-2 0 0 3-2 3-6 3-5-1-8-5-7-7l5-1c4 1 5 1 8-2 3-2 4-2 15-2l15 2zm250 4a1496 1496 0 0 0 59 6l14 2c3 0 2 2-2 3-6 0-6 0-8 2s-3 2-10 2l-8 1c0 2 13 6 16 6 2 0 4 3 3 4l-24-3c-3-1-4-1-5 1s-4 3-4 1l-5-1c-4 0-5 0-11-4l-12-7-20-9 2-2-1-1c-2 0-4 0-4-2l4-1 16 2zm-215 1c0 1-3 4-6 5l-12-2c-2-1-2-1 0-3h18zm315 5v2c-2 0-5-2-5-3h2l3 1zm-2 9c-2 1-3 1-3-1h3l-1 1zm11 5h-3c-1-1-1-1 2-1s3 0 1 1zm-199 35-2 2h-1l1-2h2zm-11 5 2 1-2 1c-2 0-2 1-2 4 0 5 1 7 3 7v2c-3 3-6 0-7-6l-1-6 1-3c2-3 2-3 3-1s1 2 3 1zm8 1 1 6 1 6c1 1 1 1-1 2-3 1-3 1-3-8-1-7-1-8 2-7zm17 9c-2 5-2 5-4 6-4 1-8-2-8-4l1-5c0-3 0-4 3-5s4 0 6 1c3 2 3 2 2 7zm-36-6 2 5c1 5 1 5-1 7h-8l-1-5c-2-5-2-5 0-7s6-2 8 0zm-147 1 5 3c4 1 5 2 4 4l-2 6-4 1c-4 1-12 0-18-3-5-3-5-4-4-6l2-2 5-3h12zm192 1c0 1-3 12-5 13-2 2-2-1 0-6l1-7c-1-1 2-2 4 0zm-59 1c0 2 3 10 5 10v2c-2 2-4 0-6-4l-4-4c-2 1-2 0-1-2 1-1 2-2 3-1l2-1c1-2 2-1 1 0zm67 5c-1 1-3 5-3 8-1 2-4 3-4 1l2-6 1-5c-1-2 1-3 4-1v3zm-76 1c3 1 7 9 7 11-1 2-3 0-6-5-3-3-3-4-5-3v-2c1-2 3-2 4-1zm90 2 2 3-3 4-4 6c1 1 0 1-1 1l-2-2c0-2-1-2-3-2-3 0-3 0-3-3 0-2 1-3 3-4l3-4c0-2 0-2 3-1 1 0 4 1 5 3zm-238 2c-1 2-5 1-5 0s2-2 4-1c2 0 2 1 1 1zm143 2 3 5c3 3 3 5 1 5l-5-4-4-4v-2c0-2 4-2 5 0zm108 0c1 1 1 2-4 7-4 4-5 6-5 8 1 2 0 2-2 1l-2-5 5-7 6-5 2 1zm90 3 1 3c-1 0-2-1-2-3l-2-3c1 0 2 1 2 3zm-204 3-3 2c-4 0-3 3 1 5l3 3 2-2 2-3-1 3-2 4c-2 2-3 2-7-2-3-2-4-4-3-5l1-3c0-2 7-4 7-2zm214 2v2h-3c-2-3 0-4 3-2zm8 1 8 1c6-1 6-1 6 2l-1 4c-2 1-11 0-13-2l-3-1c-2 0-3-2-2-4s1-2 5 0zm-330 1-1 3c0 2-1 2-4 2l-6-2c-1-2-1-2 1-3h10zm375 7h-2l-2-1 4 1zm-377 5-3 6-1 5-2 1-5-2-21-5c0-2 12-3 19-2h6c2-2 7-4 7-3zm-32 27h-6l3-1c3-1 4 0 3 1zm18-1h-2v-1l2 1z"/><path d="m356 215 2 1c2 1 2 0 1-1h-3zM338 220c0 1 6 4 7 3l-3-2-4-1zM232 269c0 3 1 6 3 6l1-4v-5c-2-2-3-1-4 3zM199 270c1 4 3 6 5 5l-3-8c-3-2-4-1-2 3zM51 273l3 2c5 1 6 1 6-1 0-1-2-2-5-2l-4 1zM264 277l2 3h2c0-2-1-5-3-5l-1 2zM261 280c-2 2-1 5 1 5 3 0 5-3 3-4-1-2-2-2-4-1zM276 117l-2 4c0 2 0 3 1 2l2-5c1-3 1-4-1-1zM272 129l-1 3h1l1-3h-1zM268 142l1 1 1-1-1-1-1 1zM269 145l-1 1h3c1-2 0-2-2-1z"/></svg>