<svg xmlns="http://www.w3.org/2000/svg" width="206.7" height="206.7" version="1.0" viewBox="0 0 155 155"><path d="M92 47c0 1 1 3 3 3s3-2 2-4c-2-1-4-1-5 1zM70 49v3c2 1 2 1 3-1 2-1 2-2 1-3-2-1-2-1-4 1zM78 58c-5 2-8 7-8 14-2 10 2 15 12 17 11 3 20-4 21-15 0-5 0-7-2-10-5-7-15-10-23-6zm13 4c5 2 7 5 7 11 0 4 0 6-3 9-3 2-5 3-8 3-9 0-14-5-13-14 1-8 9-12 17-9zM109 64v3h4c1-2 1-5-1-5l-3 2zM58 69c-1 1-1 4 1 4l3-4c-1-2-2-2-4 0zM106 87c0 1 1 3 3 3l2-4c0-2-4-1-5 1zM63 91c0 2 1 2 2 2l1-2c1-1 0-2-1-2-2 0-2 1-2 2zM86 100v3c2 1 4 1 4-2 0-2-2-3-4-1z"/></svg>